<svg xmlns="http://www.w3.org/2000/svg" xmlns:svg="http://www.w3.org/2000/svg" xmlns:xlink="http://www.w3.org/1999/xlink" id="svg8" width="48" height="48" version="1.1" viewBox="0 0 48 48"><title id="title7895">Antu icon Theme</title><defs id="defs2"><linearGradient id="0" x2="0" y1="545.14" y2="518.14" gradientUnits="userSpaceOnUse"><stop id="stop829" stop-color="#197ff1"/><stop id="stop831" offset="1" stop-color="#21c6fb"/></linearGradient><linearGradient id="linearGradient872" x1="24" x2="24" y1="46" y2="2" gradientUnits="userSpaceOnUse" xlink:href="#0"/></defs><metadata id="metadata5"/><g id="layer1" transform="translate(0,-266.64999)"><g id="g1535" transform="translate(35,-15.000005)"><g id="g911" transform="translate(-35,15)"><g id="g5422" transform="translate(-24,-4)"><path style="opacity:1;fill:url(#linearGradient872);fill-opacity:1;stroke:none;stroke-width:.30000001;stroke-miterlimit:4;stroke-dasharray:none;stroke-opacity:1" id="rect4544" d="M 24 2 C 11.812 2 2 11.812 2 24 C 2 36.18797 11.812 46 24 46 C 36.187976 46 46 36.18797 46 24 C 46 11.812 36.187976 2 24 2 z" transform="translate(24,270.64999)"/><path id="rect4212-5" d="m 48,282.64999 c -1.662,0 -3,1.338 -3,3 0,1.662 1.338,3 3,3 1.662,0 3,-1.338 3,-3 0,-1.662 -1.338,-3 -3,-3 z m 0,9 c -1.662,0 -3,1.338 -3,3 l 0,9 c 0,1.662 1.338,3 3,3 1.662,0 3,-1.338 3,-3 l 0,-9 c 0,-1.662 -1.338,-3 -3,-3 z" style="opacity:1;fill:#def1fe;fill-opacity:1;stroke:none;stroke-width:2;stroke-linecap:round;stroke-linejoin:round;stroke-miterlimit:4;stroke-dasharray:none;stroke-dashoffset:0;stroke-opacity:1"/></g></g></g></g></svg>