<svg xmlns="http://www.w3.org/2000/svg" xmlns:svg="http://www.w3.org/2000/svg" xmlns:xlink="http://www.w3.org/1999/xlink" id="svg8" width="48" height="48" version="1.1" viewBox="0 0 48 48"><title id="title7895">Antu icon Theme</title><defs id="defs2"><linearGradient id="linearGradient832" x1="48" x2="48" y1="315.65" y2="272.65" gradientTransform="translate(-24,-270.64999)" gradientUnits="userSpaceOnUse" xlink:href="#linearGradient961"/><linearGradient id="0" x2="0" y1="545.79" y2="501.79" gradientUnits="userSpaceOnUse"><stop id="stop851" stop-color="#197cf1"/><stop id="stop853" offset="1" stop-color="#20bcfa"/></linearGradient><linearGradient id="1" x1="22.03" x2="21.592" y1="49.03" y2=".437" gradientUnits="userSpaceOnUse"><stop id="stop856" stop-color="#212121"/><stop id="stop858" offset="1" stop-color="#3f3f41"/></linearGradient><linearGradient id="0-3" x2="0" y1="545.14" y2="518.14" gradientUnits="userSpaceOnUse"><stop id="stop890" stop-color="#e7e7e7"/><stop id="stop892" offset="1" stop-color="#fcfcfc"/></linearGradient><linearGradient id="linearGradient961"><stop id="stop957" offset="0" style="stop-color:#29b672;stop-opacity:1"/><stop id="stop959" offset="1" style="stop-color:#56d38c;stop-opacity:1"/></linearGradient></defs><metadata id="metadata5"/><g id="layer1" transform="translate(0,-266.64999)"><g id="g1535" transform="translate(35,-15.000005)"><g id="g911" transform="translate(-35,15)"><g id="g5422" transform="translate(-24,-4)"><path style="opacity:1;fill:url(#linearGradient832);fill-opacity:1;stroke:none;stroke-width:.30000001;stroke-miterlimit:4;stroke-dasharray:none;stroke-opacity:1" id="rect4544" d="M 24 2 C 11.812 2 2 11.812 2 24 C 2 36.18797 11.812 46 24 46 C 36.187976 46 46 36.18797 46 24 C 46 11.812 36.187976 2 24 2 z" transform="translate(24,270.64999)"/><path style="opacity:1;vector-effect:none;fill:#f8faf8;fill-opacity:1;stroke:none;stroke-width:4;stroke-linecap:round;stroke-linejoin:round;stroke-miterlimit:4;stroke-dasharray:none;stroke-dashoffset:0;stroke-opacity:1;paint-order:normal" id="rect833" d="M 20 11 L 20 20 L 11 20 L 11 28 L 20 28 L 20 37 L 28 37 L 28 28 L 37 28 L 37 20 L 28 20 L 28 11 L 20 11 z" transform="translate(24,270.64999)"/></g></g></g></g></svg>