<svg xmlns="http://www.w3.org/2000/svg" xmlns:svg="http://www.w3.org/2000/svg" xmlns:xlink="http://www.w3.org/1999/xlink" id="svg8" width="48" height="48" version="1.1" viewBox="0 0 48 48"><title id="title7895">Antu icon Theme</title><defs id="defs2"><linearGradient id="linearGradient4836" x1="2102.834" x2="2102.834" y1="-4960.827" y2="-5114.236" gradientTransform="matrix(0.23466667,0,0,0.23466667,-445.46491,1476.7907)" gradientUnits="userSpaceOnUse" xlink:href="#linearGradient977"/><linearGradient id="linearGradient977"><stop id="stop973" offset="0" style="stop-color:#20252f;stop-opacity:1"/><stop id="stop975" offset="1" style="stop-color:#0a0b0d;stop-opacity:1"/></linearGradient><linearGradient id="linearGradient868" x1="48" x2="49.317" y1="273.65" y2="315.65" gradientUnits="userSpaceOnUse" xlink:href="#linearGradient977"/></defs><metadata id="metadata5"/><g id="layer1" transform="translate(0,-266.64999)"><g id="g1535" transform="translate(35,-15.000005)"><g id="g911" transform="translate(-35,15)"><g id="g5422" transform="translate(-24,-4)"><path id="rect4544" d="m 47.999976,272.65002 4.7e-5,0 C 60.187999,272.65002 70,282.462 70,294.65 c 0,12.18797 -9.812001,21.99997 -21.999977,21.99997 l -4.7e-5,0 c -12.188,0 -21.999977,-9.812 -21.999977,-21.99997 0,-12.188 9.811977,-21.99998 21.999977,-21.99998 z" style="opacity:1;fill:url(#linearGradient868);fill-opacity:1;stroke:none;stroke-width:.30000001;stroke-miterlimit:4;stroke-dasharray:none;stroke-opacity:1"/><path id="rect4544-5" d="m 47.999976,273.64998 2.3e-5,0 c 11.633999,0 20.999992,9.36599 20.999992,20.99999 0,11.63401 -9.365993,21 -20.999992,21 l -2.3e-5,0 c -11.633999,0 -20.999992,-9.36599 -20.999992,-21 0,-11.634 9.365993,-20.99999 20.999992,-20.99999 z" style="opacity:1;fill:url(#linearGradient4836);fill-opacity:1;stroke:none;stroke-width:.30000001;stroke-miterlimit:4;stroke-dasharray:none;stroke-opacity:1"/><g id="g973" transform="translate(0.999555)"><path id="path954" d="m 44.817383,281.91367 a 13,13 0 0 0 -10.460938,12.73632 13,13 0 0 0 13,13 13,13 0 0 0 12.287109,-8.79687 12,12 0 0 1 -1.076171,0.35937 12,12 0 0 1 -1.171876,0.26368 12,12 0 0 1 -1.189453,0.14453 12,12 0 0 1 -0.849609,0.0293 12,12 0 0 1 -1.197266,-0.0605 12,12 0 0 1 -1.1875,-0.17774 12,12 0 0 1 -1.162109,-0.29687 12,12 0 0 1 -1.126953,-0.41211 12,12 0 0 1 -1.080078,-0.52149 12,12 0 0 1 -1.021485,-0.62695 12,12 0 0 1 -0.955078,-0.72656 12,12 0 0 1 -0.876953,-0.81641 12,12 0 0 1 -0.792969,-0.90234 12,12 0 0 1 -0.697265,-0.97461 12,12 0 0 1 -0.597656,-1.04102 12,12 0 0 1 -0.488282,-1.0957 12,12 0 0 1 -0.378906,-1.13672 12,12 0 0 1 -0.263672,-1.17187 12,12 0 0 1 -0.144531,-1.18946 12,12 0 0 1 -0.0293,-0.84961 12,12 0 0 1 0.06055,-1.19726 12,12 0 0 1 0.177734,-1.1875 12,12 0 0 1 0.296875,-1.16211 12,12 0 0 1 0.41211,-1.12695 12,12 0 0 1 0.513672,-1.0625 z" style="opacity:1;fill:#ebecf4;fill-opacity:1;stroke:none;stroke-width:3.3565855;stroke-linecap:round;stroke-linejoin:round;stroke-miterlimit:4;stroke-dasharray:none;stroke-opacity:1"/></g></g></g></g></g></svg>