<svg xmlns="http://www.w3.org/2000/svg" xmlns:svg="http://www.w3.org/2000/svg" xmlns:xlink="http://www.w3.org/1999/xlink" id="svg8" width="48" height="48" version="1.1" viewBox="0 0 48 48"><title id="title7895">Antu icon Theme</title><defs id="defs2"><linearGradient id="0" x2="0" y1="545.79" y2="501.79" gradientUnits="userSpaceOnUse"><stop id="stop851" stop-color="#197cf1"/><stop id="stop853" offset="1" stop-color="#20bcfa"/></linearGradient><linearGradient id="1" x1="22.03" x2="21.592" y1="49.03" y2=".437" gradientUnits="userSpaceOnUse"><stop id="stop856" stop-color="#212121"/><stop id="stop858" offset="1" stop-color="#3f3f41"/></linearGradient><linearGradient id="0-3" x2="0" y1="545.14" y2="518.14" gradientUnits="userSpaceOnUse"><stop id="stop890" stop-color="#e7e7e7"/><stop id="stop892" offset="1" stop-color="#fcfcfc"/></linearGradient><style id="current-color-scheme" type="text/css"/><style id="current-color-scheme-5" type="text/css"/><style id="current-color-scheme-3" type="text/css"/><style id="current-color-scheme-53" type="text/css"/><style id="current-color-scheme-5-5" type="text/css"/><style id="current-color-scheme-6" type="text/css"/><style id="current-color-scheme-5-2" type="text/css"/><style id="current-color-scheme-2" type="text/css"/><style id="current-color-scheme-5-1" type="text/css"/><style id="current-color-scheme-3-2" type="text/css"/><style id="current-color-scheme-535" type="text/css"/><style id="current-color-scheme-5356" type="text/css"/><style id="current-color-scheme-5-29" type="text/css"/><style id="current-color-scheme-3-1" type="text/css"/><style id="current-color-scheme-53-2" type="text/css"/><style id="current-color-scheme-62" type="text/css"/><style id="current-color-scheme-7" type="text/css"/><style id="current-color-scheme-5-91" type="text/css"/><style id="current-color-scheme-2-2" type="text/css"/><style id="current-color-scheme-7-7" type="text/css"/><style id="current-color-scheme-5-0" type="text/css"/><style id="current-color-scheme-9" type="text/css"/><style id="current-color-scheme-1" type="text/css"/><style id="current-color-scheme-10" type="text/css"/><style id="current-color-scheme-6-7" type="text/css"/><style id="current-color-scheme-7-1" type="text/css"/><style id="current-color-scheme-5-2-0" type="text/css"/><style id="current-color-scheme-3-9" type="text/css"/><style id="current-color-scheme-7-75" type="text/css"/><style id="current-color-scheme-5-9" type="text/css"/><style id="current-color-scheme-9-2" type="text/css"/><style id="current-color-scheme-1-2" type="text/css"/><style id="current-color-scheme-10-8" type="text/css"/><style id="current-color-scheme-6-9" type="text/css"/><style id="current-color-scheme-7-1-7" type="text/css"/><style id="current-color-scheme-5-2-3" type="text/css"/><style id="current-color-scheme-106" type="text/css"/><style id="current-color-scheme-7-3" type="text/css"/><style id="current-color-scheme-5-20" type="text/css"/><style id="current-color-scheme-9-6" type="text/css"/><style id="current-color-scheme-1-1" type="text/css"/><style id="current-color-scheme-10-5" type="text/css"/><style id="current-color-scheme-6-5" type="text/css"/><style id="current-color-scheme-7-1-4" type="text/css"/><style id="current-color-scheme-5-2-7" type="text/css"/><linearGradient id="linearGradient4774"><stop style="stop-color:#f41e3d;stop-opacity:1" id="stop4770" offset="0"/><stop style="stop-color:#fc3a56;stop-opacity:1" id="stop4772" offset="1"/></linearGradient><linearGradient id="linearGradient1003" x1="14" x2="14" y1="47" y2="33" gradientUnits="userSpaceOnUse" xlink:href="#linearGradient4774"/><linearGradient id="linearGradient1011" x1="34" x2="34" y1="47" y2="32" gradientUnits="userSpaceOnUse" xlink:href="#linearGradient4774"/><linearGradient id="linearGradient979"><stop id="stop975" offset="0" style="stop-color:#858888;stop-opacity:1"/><stop id="stop977" offset="1" style="stop-color:#a1abae;stop-opacity:1"/></linearGradient><linearGradient id="linearGradient1045" x1="18" x2="35" y1="33" y2="5" gradientUnits="userSpaceOnUse" xlink:href="#linearGradient979"/><linearGradient id="linearGradient1053" x1="28" x2="13" y1="33" y2="5" gradientUnits="userSpaceOnUse" xlink:href="#linearGradient979"/></defs><metadata id="metadata5"/><g id="layer1" transform="translate(0,-266.64999)"><g id="g1535" transform="translate(35,-15.000005)"><g id="g911" transform="translate(-35,15)"><g id="g5422" transform="translate(-24,-4)"><path id="path933" d="m 34.007812,1 c -0.355273,-0.002827 -0.685375,0.1830414 -0.867187,0.4882812 l -19,31.9999998 c -0.197052,0.331063 -0.186416,0.745878 0.02734,1.066407 2.20963,1.221277 3.796143,2.996288 4,6 0.414133,0.620312 1.33706,0.585384 1.703125,-0.06445 l 18,-31.9999996 c 0.162924,-0.289242 0.171705,-0.6404783 0.02344,-0.9375 l -3,-6 C 34.726356,1.2164574 34.383786,1.002917 34.007812,1 Z" transform="translate(24,270.64999)" style="color:#000;font-style:normal;font-variant:normal;font-weight:400;font-stretch:normal;font-size:medium;line-height:normal;font-family:sans-serif;font-variant-ligatures:normal;font-variant-position:normal;font-variant-caps:normal;font-variant-numeric:normal;font-variant-alternates:normal;font-feature-settings:normal;text-indent:0;text-align:start;text-decoration:none;text-decoration-line:none;text-decoration-style:solid;text-decoration-color:#000;letter-spacing:normal;word-spacing:normal;text-transform:none;writing-mode:lr-tb;direction:ltr;text-orientation:mixed;dominant-baseline:auto;baseline-shift:baseline;text-anchor:start;white-space:normal;shape-padding:0;clip-rule:nonzero;display:inline;overflow:visible;visibility:visible;opacity:1;isolation:auto;mix-blend-mode:normal;color-interpolation:sRGB;color-interpolation-filters:linearRGB;solid-color:#000;solid-opacity:1;vector-effect:none;fill:url(#linearGradient1045);fill-opacity:1;fill-rule:nonzero;stroke:none;stroke-width:2;stroke-linecap:round;stroke-linejoin:round;stroke-miterlimit:4;stroke-dasharray:none;stroke-dashoffset:0;stroke-opacity:1;color-rendering:auto;image-rendering:auto;shape-rendering:auto;text-rendering:auto;enable-background:accumulate"/><path id="path929" d="M 14.035156 1 C 13.643769 0.9863 13.280414 1.2023544 13.105469 1.5527344 L 10.105469 7.5527344 C 9.9572018 7.8497544 9.9659812 8.2009944 10.128906 8.4902344 L 28.128906 40.490234 C 28.494953 41.140084 29.417881 41.174987 29.832031 40.554688 C 30.236094 36.609127 32.147941 35.820328 33.832031 34.554688 C 34.045791 34.234157 34.05643 33.819341 33.859375 33.488281 L 14.859375 1.4882812 C 14.685533 1.1959612 14.375048 1.01203 14.035156 1 z" transform="translate(24,270.64999)" style="color:#000;font-style:normal;font-variant:normal;font-weight:400;font-stretch:normal;font-size:medium;line-height:normal;font-family:sans-serif;font-variant-ligatures:normal;font-variant-position:normal;font-variant-caps:normal;font-variant-numeric:normal;font-variant-alternates:normal;font-feature-settings:normal;text-indent:0;text-align:start;text-decoration:none;text-decoration-line:none;text-decoration-style:solid;text-decoration-color:#000;letter-spacing:normal;word-spacing:normal;text-transform:none;writing-mode:lr-tb;direction:ltr;text-orientation:mixed;dominant-baseline:auto;baseline-shift:baseline;text-anchor:start;white-space:normal;shape-padding:0;clip-rule:nonzero;display:inline;overflow:visible;visibility:visible;opacity:1;isolation:auto;mix-blend-mode:normal;color-interpolation:sRGB;color-interpolation-filters:linearRGB;solid-color:#000;solid-opacity:1;vector-effect:none;fill:url(#linearGradient1053);fill-opacity:1;fill-rule:nonzero;stroke:none;stroke-width:2;stroke-linecap:round;stroke-linejoin:round;stroke-miterlimit:4;stroke-dasharray:none;stroke-dashoffset:0;stroke-opacity:1;color-rendering:auto;image-rendering:auto;shape-rendering:auto;text-rendering:auto;enable-background:accumulate"/><path id="rect889" d="M 14 32 C 9.568 32 6 35.568 6 40 C 6 44.432 9.568 48 14 48 C 18.432 48 22 44.432 22 40 C 22 35.568 18.432 32 14 32 z M 14 36 C 16.216 36 18 37.784 18 40 C 18 42.216 16.216 44 14 44 C 11.784 44 10 42.216 10 40 C 10 37.784 11.784 36 14 36 z" transform="translate(24,270.64999)" style="opacity:1;vector-effect:none;fill:url(#linearGradient1003);fill-opacity:1;stroke:none;stroke-width:6.30367947;stroke-linecap:round;stroke-linejoin:round;stroke-miterlimit:4;stroke-dasharray:none;stroke-dashoffset:0;stroke-opacity:1;paint-order:normal"/><path id="rect889-3" d="M 34.554688 32 C 30.122687 32 26.554688 35.568 26.554688 40 C 26.554688 44.432 30.122687 48 34.554688 48 C 38.986688 48 42.554688 44.432 42.554688 40 C 42.554688 35.568 38.986688 32 34.554688 32 z M 34.554688 36 C 36.770688 36 38.554688 37.784 38.554688 40 C 38.554688 42.216 36.770688 44 34.554688 44 C 32.338687 44 30.554688 42.216 30.554688 40 C 30.554688 37.784 32.338687 36 34.554688 36 z" transform="translate(24,270.64999)" style="opacity:1;vector-effect:none;fill:url(#linearGradient1011);fill-opacity:1;stroke:none;stroke-width:6.30367947;stroke-linecap:round;stroke-linejoin:round;stroke-miterlimit:4;stroke-dasharray:none;stroke-dashoffset:0;stroke-opacity:1;paint-order:normal"/><path id="rect890" d="m 48,291.64999 c 1.108,0 2,0.892 2,2 v 0 c 0,1.108 -0.892,2 -2,2 -1.108,0 -2,-0.892 -2,-2 v 0 c 0,-1.108 0.892,-2 2,-2 z" style="opacity:1;vector-effect:none;fill:#393b3c;fill-opacity:1;stroke:none;stroke-width:2;stroke-linecap:round;stroke-linejoin:round;stroke-miterlimit:4;stroke-dasharray:none;stroke-dashoffset:0;stroke-opacity:1;paint-order:normal"/></g></g></g></g></svg>