<svg xmlns="http://www.w3.org/2000/svg" xmlns:svg="http://www.w3.org/2000/svg" xmlns:xlink="http://www.w3.org/1999/xlink" id="svg8" width="48" height="48" version="1.1" viewBox="0 0 48 48"><title id="title7895">Antu icon Theme</title><defs id="defs2"><linearGradient id="linearGradient964" x1="-10" x2="-11" y1="322.65" y2="284.65" gradientTransform="translate(0,4.0000041)" gradientUnits="userSpaceOnUse" xlink:href="#linearGradient961"/><linearGradient id="linearGradient961"><stop style="stop-color:#29b672;stop-opacity:1" id="stop957" offset="0"/><stop style="stop-color:#56d38c;stop-opacity:1" id="stop959" offset="1"/></linearGradient></defs><metadata id="metadata5"/><g id="layer1" transform="translate(0,-266.64999)"><g id="layer1-6" transform="matrix(3.7795276,0,0,3.7795276,-2.9134242e-7,-807.8699)"><g id="g1582" transform="translate(8.7888347,-6.9513563)"><g id="layer1-7" transform="matrix(0.26458333,0,0,0.26458333,-19.639978,222.52438)"><g id="g1535" transform="translate(35,-15.000005)"><g id="g1028"><g id="g952" transform="translate(41.012196,-6.8942915)"><g id="g1342"><path style="opacity:1;fill:url(#linearGradient964);fill-opacity:1;stroke:none;stroke-width:2;stroke-linecap:round;stroke-linejoin:round;stroke-miterlimit:4;stroke-dasharray:none;stroke-opacity:1" id="rect1156" d="m -32,288.64999 c -1.662,0 -3,1.338 -3,3 v 28 c 0,1.662 1.338,3 3,3 h 42 c 1.662,0 3,-1.338 3,-3 v -28 c 0,-1.662 -1.338,-3 -3,-3 z"/></g></g></g></g></g></g></g><path style="opacity:1;vector-effect:none;fill:#cdf1dd;fill-opacity:1;stroke:none;stroke-width:6;stroke-linecap:round;stroke-linejoin:round;stroke-miterlimit:4;stroke-dasharray:none;stroke-dashoffset:0;stroke-opacity:1;paint-order:normal" id="path1114" d="M 11 10 L 11 13 L 10.982422 13 C 10.984685 13.060962 11 13.11815 11 13.179688 C 11 13.847359 10.866304 14.481501 10.623047 15.058594 C 10.37979 15.635686 10.027418 16.156176 9.5917969 16.591797 C 9.1561757 17.027418 8.6356864 17.37979 8.0585938 17.623047 C 7.4815009 17.866304 6.8473591 18 6.1796875 18 L 6 18 L 5.8203125 18 L 3 18 L 3 30 L 5.8203125 30 L 6 30 L 6.1796875 30 C 6.847359 30 7.4815009 30.133696 8.0585938 30.376953 C 8.6356864 30.62021 9.1561757 30.972582 9.5917969 31.408203 C 10.027418 31.843824 10.37979 32.364313 10.623047 32.941406 C 10.866304 33.518499 11 34.15264 11 34.820312 C 11 34.881813 10.984682 34.93903 10.982422 35 L 11 35 L 11 38 L 37 38 L 37 35 L 37.017578 35 C 37.015318 34.93903 37 34.881813 37 34.820312 C 37 34.152642 37.133696 33.518499 37.376953 32.941406 C 37.62021 32.364314 37.972582 31.843825 38.408203 31.408203 C 38.843824 30.972582 39.364314 30.62021 39.941406 30.376953 C 40.518499 30.133696 41.152642 30 41.820312 30 L 42 30 L 42.179688 30 L 45 30 L 45 18 L 42.179688 18 L 42 18 L 41.820312 18 C 41.152642 18 40.518499 17.866304 39.941406 17.623047 C 39.364314 17.37979 38.843824 17.027418 38.408203 16.591797 C 37.972582 16.156176 37.62021 15.635687 37.376953 15.058594 C 37.133696 14.481501 37 13.847359 37 13.179688 C 37 13.118187 37.015318 13.06097 37.017578 13 L 37 13 L 37 10 L 11 10 z M 24 16 C 27.324 16 30 18.676 30 22 L 30 26 C 30 29.324 27.324 32 24 32 C 20.676 32 18 29.324 18 26 L 18 22 C 18 18.676 20.676 16 24 16 z" transform="translate(0,266.64999)"/><rect style="opacity:.71199999;vector-effect:none;fill:#51d089;fill-opacity:1;stroke:none;stroke-width:6;stroke-linecap:round;stroke-linejoin:round;stroke-miterlimit:4;stroke-dasharray:none;stroke-dashoffset:0;stroke-opacity:1;paint-order:normal" id="rect971" width=".112" height="0" x="-2.723" y="284.65" ry="0"/></g></svg>