<svg xmlns="http://www.w3.org/2000/svg" xmlns:svg="http://www.w3.org/2000/svg" xmlns:xlink="http://www.w3.org/1999/xlink" id="svg8" width="48" height="48" version="1.1" viewBox="0 0 48 48"><title id="title7895">Antu icon Theme</title><defs id="defs2"><linearGradient id="linearGradient850"><stop style="stop-color:#233a39;stop-opacity:1" id="stop846" offset="0"/><stop style="stop-color:#434d4d;stop-opacity:1" id="stop848" offset="1"/></linearGradient><linearGradient id="linearGradient842"><stop style="stop-color:#566066;stop-opacity:1" id="stop838" offset="0"/><stop style="stop-color:#6d7a81;stop-opacity:1" id="stop840" offset="1"/></linearGradient><style id="current-color-scheme" type="text/css"/><style id="current-color-scheme-1" type="text/css"/><linearGradient id="linearGradient839" x1="-31" x2="-31" y1="303.65" y2="261.65" gradientTransform="translate(56,-258.64999)" gradientUnits="userSpaceOnUse" xlink:href="#linearGradient842"/><linearGradient id="linearGradient848" x1="-32" x2="-32" y1="295.65" y2="263.65" gradientTransform="translate(56,-258.64999)" gradientUnits="userSpaceOnUse" xlink:href="#linearGradient850"/></defs><metadata id="metadata5"/><g id="layer1" transform="translate(0,-266.64999)"><g id="g19473" transform="translate(56,8)"><path id="rect18678-7" d="M 5 2 C 3.338 2 2 3.338 2 5 L 2 43 C 2 44.662 3.338 46 5 46 L 43 46 C 44.662 46 46 44.662 46 43 L 46 5 C 46 3.338 44.662 2 43 2 L 5 2 z" transform="translate(-56,258.64999)" style="opacity:1;vector-effect:none;fill:url(#linearGradient839);fill-opacity:1;stroke:none;stroke-width:2;stroke-linecap:round;stroke-linejoin:round;stroke-miterlimit:4;stroke-dasharray:none;stroke-dashoffset:0;stroke-opacity:1;paint-order:markers stroke fill"/><path id="rect18678" d="M 6 5 C 5.446002 5 5 5.446 5 6 L 5 36 C 5 36.554 5.446002 37 6 37 L 42 37 C 42.553998 37 43 36.554 43 36 L 43 6 C 43 5.446 42.553998 5 42 5 L 6 5 z" transform="translate(-56,258.64999)" style="opacity:1;vector-effect:none;fill:url(#linearGradient848);fill-opacity:1;stroke:none;stroke-width:2;stroke-linecap:round;stroke-linejoin:round;stroke-miterlimit:4;stroke-dasharray:none;stroke-dashoffset:0;stroke-opacity:1;paint-order:markers stroke fill"/></g><path id="rect1045-9-7" d="m 9,274.64999 v 1 H 8 v 1 h 1 v 1 H 8 v 1 h 1 v 1 h 1 v -1 h 1 v 1 h 1 v -1 h 1 v -1 h -1 v -1 h 1 v -1 h -1 v -1 h -1 v 1 h -1 v -1 z m 1,2 h 1 v 1 h -1 z m -2,5 v 1 h 3 v -1 z m 4.546875,0 v 1 H 14 v -1 z m 2.453125,0 v 1 h 4 v -1 z m -7,2 v 1 h 1 v -1 z m 2,0 v 1 h 3 v -1 z m 4,0 v 1 h 4 v -1 z m -6,2 v 1 h 6 v -1 z m 7,0 v 1 h 1 v -1 z m 2,0 v 1 h 2 v -1 z m -9,2 v 1 h 3 v -1 z m 4,0 v 1 h 3 v -1 z m 4,0 v 1 h 3 v -1 z m -8,2 v 1 h 1 v -1 z m 2,0 v 1 h 7 v -1 z m 8,0 v 1 h 1 v -1 z m -9,3 v 1 H 8 v 1 h 1 v 1 H 8 v 1 h 1 v 1 h 1 v -1 h 1 v 1 h 1 v -1 h 1 v -1 h -1 v -1 h 1 v -1 h -1 v -1 h -1 v 1 h -1 v -1 z m 1,2 h 1 v 1 h -1 z m -2,5 v 1 h 3 v -1 z m 4.546875,0 v 1 H 14 v -1 z m 2.453125,0 v 1 h 4 v -1 z" style="opacity:1;fill:#ececec;fill-opacity:1;stroke:none;stroke-width:8;stroke-linecap:round;stroke-linejoin:round;stroke-miterlimit:4;stroke-dasharray:none;stroke-dashoffset:0;stroke-opacity:1"/></g></svg>