<svg xmlns="http://www.w3.org/2000/svg" xmlns:svg="http://www.w3.org/2000/svg" xmlns:xlink="http://www.w3.org/1999/xlink" id="svg8" width="48" height="48" version="1.1" viewBox="0 0 48 48"><title id="title7895">Antu icon Theme</title><defs id="defs2"><linearGradient id="linearGradient4656"><stop style="stop-color:#e4e4e4;stop-opacity:1" id="stop4652" offset="0"/><stop style="stop-color:#fbfbfb;stop-opacity:1" id="stop4654" offset="1"/></linearGradient><linearGradient id="linearGradient4622"><stop id="stop4618" offset="0" style="stop-color:#ff6a3e;stop-opacity:1"/><stop id="stop4620" offset="1" style="stop-color:#ff9065;stop-opacity:1"/></linearGradient><linearGradient id="linearGradient837" x1="-22" x2="-20" y1="295.65" y2="255.65" gradientTransform="translate(36,-254.64999)" gradientUnits="userSpaceOnUse" xlink:href="#linearGradient4622"/><linearGradient id="linearGradient846" x1="-10" x2="-10" y1="300.65" y2="260.65" gradientTransform="translate(36,-254.64999)" gradientUnits="userSpaceOnUse" xlink:href="#linearGradient4656"/></defs><metadata id="metadata5"/><g id="layer1" transform="translate(0,-266.64999)"><g id="g2024" transform="translate(36,12)"><path style="opacity:1;fill:url(#linearGradient837);fill-opacity:1;stroke:none;stroke-width:1;stroke-linecap:round;stroke-linejoin:round;stroke-miterlimit:4;stroke-dasharray:none;stroke-opacity:1" id="rect900-2" d="M 7 1 C 5.338 1 4 2.338 4 4 L 4 12 L 4 15 L 4 40 C 4 41.662 5.338 43 7 43 L 37 43 C 38.662 43 40 41.662 40 40 L 40 18 L 40 15 L 40 12 L 40 4 C 40 2.338 38.662 1 37 1 L 7 1 z" transform="translate(-36,254.64999)"/><path style="opacity:1;fill:url(#linearGradient846);fill-opacity:1;stroke:none;stroke-width:1;stroke-linecap:round;stroke-linejoin:round;stroke-miterlimit:4;stroke-dasharray:none;stroke-opacity:1" id="rect900" d="M 11 5 C 9.338 5 8 6.338 8 8 L 8 16 L 8 19 L 8 44 C 8 45.662 9.338 47 11 47 L 41 47 C 42.662 47 44 45.662 44 44 L 44 22 L 44 19 L 44 16 L 44 8 C 44 6.338 42.662 5 41 5 L 11 5 z" transform="translate(-36,254.64999)"/><path id="rect1001" d="m -23,265.64999 v 2 h 8 v -2 z m 10,0 v 2 h 3 v -2 z m 5,0 v 2 h 4 v -2 z m 6,0 v 2 h 5 v -2 z m -21,4 v 2 h 4 v -2 z m 6,0 v 2 h 8 v -2 z m 10,0 v 2 h 9 v -2 z m -16,4 v 2 h 3 v -2 z m 5,0 v 2 h 4 v -2 z m 6,0 v 2 h 8 v -2 z m 10,0 v 2 h 5 v -2 z m -21,4 v 2 h 11 v -2 z m 13,0 v 2 h 4 v -2 z m 6,0 v 2 h 7 v -2 z m -19,4 v 2 h 4 v -2 z m 6,0 v 2 h 8 v -2 z m 10,0 v 2 h 9 v -2 z m -16,4 v 2 h 11 v -2 z m 13,0 v 2 h 4 v -2 z m -13,4 v 2 h 4 v -2 z m 6,0 v 2 h 11 v -2 z m 13,0 v 2 h 4 v -2 z m -19,4 v 2 h 8 v -2 z m 10,0 v 2 h 4 v -2 z" style="opacity:1;vector-effect:none;fill:#90a4ae;fill-opacity:1;stroke:none;stroke-width:2;stroke-linecap:round;stroke-linejoin:round;stroke-miterlimit:4;stroke-dasharray:none;stroke-dashoffset:0;stroke-opacity:1"/></g></g></svg>