<svg xmlns="http://www.w3.org/2000/svg" xmlns:svg="http://www.w3.org/2000/svg" xmlns:xlink="http://www.w3.org/1999/xlink" id="svg8" width="48" height="48" version="1.1" viewBox="0 0 48 48"><title id="title7895">Antu icon Theme</title><defs id="defs2"><linearGradient id="0" x2="0" y1="545.79" y2="501.79" gradientUnits="userSpaceOnUse"><stop id="stop851" stop-color="#197cf1"/><stop id="stop853" offset="1" stop-color="#20bcfa"/></linearGradient><linearGradient id="1" x1="22.03" x2="21.592" y1="49.03" y2=".437" gradientUnits="userSpaceOnUse"><stop id="stop856" stop-color="#212121"/><stop id="stop858" offset="1" stop-color="#3f3f41"/></linearGradient><linearGradient id="0-3" x2="0" y1="545.14" y2="518.14" gradientUnits="userSpaceOnUse"><stop id="stop890" stop-color="#e7e7e7"/><stop id="stop892" offset="1" stop-color="#fcfcfc"/></linearGradient><style id="current-color-scheme" type="text/css"/><style id="current-color-scheme-1" type="text/css"/><style id="current-color-scheme-3" type="text/css"/><style id="current-color-scheme-5" type="text/css"/><style id="current-color-scheme-1-4" type="text/css"/><linearGradient id="0-5" x2="0" y1="545.14" y2="518.14" gradientUnits="userSpaceOnUse"><stop id="stop4164" stop-color="#00a661"/><stop id="stop4166" offset="1" stop-color="#37ce97"/></linearGradient><linearGradient id="linearGradient861" x1="41.631" x2="41.418" y1="314.583" y2="272.65" gradientTransform="translate(0,0.999605)" gradientUnits="userSpaceOnUse" xlink:href="#linearGradient961"/><linearGradient id="linearGradient961"><stop style="stop-color:#29b672;stop-opacity:1" id="stop957" offset="0"/><stop style="stop-color:#56d38c;stop-opacity:1" id="stop959" offset="1"/></linearGradient></defs><metadata id="metadata5"/><g id="layer1" transform="translate(0,-266.64999)"><g id="g1535" transform="translate(35,-15.000005)"><g id="g911" transform="translate(-35,15)"><g id="g5422" transform="translate(-24,-4)"><path id="path851" d="m 28,273.64999 a 3.0003,3.0003 0 1 0 0,6 h 7.548828 l -9.441406,7.67188 A 3.0003,3.0003 0 0 0 25,289.64999 v 11 a 3.0003,3.0003 0 0 0 4.953125,2.27734 l 27.15625,-23.27734 h 3.070313 l -34.1875,30.76953 A 3.0003,3.0003 0 0 0 28,315.64999 h 13 a 3.0003,3.0003 0 0 0 2.039062,-0.79883 L 65,294.51718 v 4.75195 L 52.046875,310.37265 A 3.0003,3.0003 0 0 0 54,315.64999 h 14 a 3.0003,3.0003 0 1 0 0,-6 h -5.890625 l 7.84375,-6.72266 A 3.0003,3.0003 0 0 0 71,300.64999 v -13 a 3.0003,3.0003 0 0 0 -5.039062,-2.20117 L 39.824219,309.64999 H 35.816406 L 70.007812,278.87851 A 3.0003,3.0003 0 0 0 68,273.64999 H 56 a 3.0003,3.0003 0 0 0 -1.953125,0.72266 L 31,294.12655 v -3.04883 l 14.892578,-12.0996 A 3.0003,3.0003 0 0 0 44,273.64999 Z" style="color:#000;font-style:normal;font-variant:normal;font-weight:400;font-stretch:normal;font-size:medium;line-height:normal;font-family:sans-serif;font-variant-ligatures:normal;font-variant-position:normal;font-variant-caps:normal;font-variant-numeric:normal;font-variant-alternates:normal;font-feature-settings:normal;text-indent:0;text-align:start;text-decoration:none;text-decoration-line:none;text-decoration-style:solid;text-decoration-color:#000;letter-spacing:normal;word-spacing:normal;text-transform:none;writing-mode:lr-tb;direction:ltr;text-orientation:mixed;dominant-baseline:auto;baseline-shift:baseline;text-anchor:start;white-space:normal;shape-padding:0;clip-rule:nonzero;display:inline;overflow:visible;visibility:visible;opacity:1;isolation:auto;mix-blend-mode:normal;color-interpolation:sRGB;color-interpolation-filters:linearRGB;solid-color:#000;solid-opacity:1;vector-effect:none;fill:url(#linearGradient861);fill-opacity:1;fill-rule:nonzero;stroke:none;stroke-width:6;stroke-linecap:round;stroke-linejoin:round;stroke-miterlimit:4;stroke-dasharray:none;stroke-dashoffset:0;stroke-opacity:1;color-rendering:auto;image-rendering:auto;shape-rendering:auto;text-rendering:auto;enable-background:accumulate"/></g></g></g></g></svg>