<svg xmlns="http://www.w3.org/2000/svg" xmlns:svg="http://www.w3.org/2000/svg" xmlns:xlink="http://www.w3.org/1999/xlink" id="svg8" width="48" height="48" version="1.1" viewBox="0 0 48 48"><title id="title7895">Antu icon Theme</title><defs id="defs2"><linearGradient id="linearGradient832"><stop id="stop828" offset="0" style="stop-color:#d9f6fc;stop-opacity:1"/><stop id="stop830" offset="1" style="stop-color:#fff;stop-opacity:1"/></linearGradient><linearGradient id="linearGradient5716"><stop style="stop-color:#1980f1;stop-opacity:1" id="stop5712" offset="0"/><stop style="stop-color:#1fb5f9;stop-opacity:1" id="stop5714" offset="1"/></linearGradient><linearGradient id="linearGradient938" x1="48" x2="48" y1="310.65" y2="290.65" gradientUnits="userSpaceOnUse" xlink:href="#linearGradient832"/><linearGradient id="linearGradient840" x1="48" x2="48" y1="315.65" y2="272.65" gradientTransform="translate(-24,-270.64999)" gradientUnits="userSpaceOnUse" xlink:href="#linearGradient5716"/></defs><metadata id="metadata5"/><g id="layer1" transform="translate(0,-266.64999)"><g id="g1535" transform="translate(35,-15.000005)"><g id="g911" transform="translate(-35,15)"><g id="g5422" transform="translate(-24,-4)"><path style="opacity:1;fill:url(#linearGradient840);fill-opacity:1;stroke:none;stroke-width:.30000001;stroke-miterlimit:4;stroke-dasharray:none;stroke-opacity:1" id="rect4544" d="M 24 2 C 11.812 2 2 11.812 2 24 C 2 36.18797 11.812 46 24 46 C 36.187976 46 46 36.18797 46 24 C 46 11.812 36.187976 2 24 2 z" transform="translate(24,270.64999)"/><path style="opacity:1;fill:url(#linearGradient938);fill-opacity:1;stroke:none;stroke-width:1;stroke-linecap:round;stroke-linejoin:round;stroke-miterlimit:4;stroke-dasharray:none;stroke-opacity:1" id="rect911-2" d="m 48,286.64515 c -3.878,0 -7,3.122 -7,7 0,3.878 3.122,7 7,7 3.878,0 7,-3.122 7,-7 0,-3.878 -3.122,-7 -7,-7 z m 0,16 c -5.25801,0 -9.997614,3.16762 -12.009766,8.02539 8.13027,5.40107 16.131825,5.223 24.019532,0 C 57.997614,305.81277 53.25801,302.64515 48,302.64515 Z"/></g></g></g></g></svg>