<svg xmlns="http://www.w3.org/2000/svg" xmlns:svg="http://www.w3.org/2000/svg" xmlns:xlink="http://www.w3.org/1999/xlink" id="svg8" width="48" height="48" version="1.1" viewBox="0 0 48 48"><title id="title7895">Antu icon Theme</title><defs id="defs2"><linearGradient id="linearGradient2237" x1="8.448" x2="8.448" y1="295.601" y2="288.987" gradientTransform="matrix(3.8654256,0,0,3.8654256,-128.65421,-741.65737)" gradientUnits="userSpaceOnUse" xlink:href="#linearGradient2126"/><style id="current-color-scheme" type="text/css"/><style id="current-color-scheme-7" type="text/css"/><style id="current-color-scheme-5" type="text/css"/><linearGradient id="linearGradient4582-3"><stop id="stop4578-5" offset="0" style="stop-color:#c8c8c8;stop-opacity:1"/><stop id="stop4580-6" offset="1" style="stop-color:#f2f2f2;stop-opacity:1"/></linearGradient><linearGradient id="linearGradient2126"><stop style="stop-color:#475057;stop-opacity:1" id="stop2122" offset="0"/><stop style="stop-color:#5e6a73;stop-opacity:1" id="stop2124" offset="1"/></linearGradient><style id="current-color-scheme-2" type="text/css"/><style id="current-color-scheme-7-7" type="text/css"/><style id="current-color-scheme-5-0" type="text/css"/><style id="current-color-scheme-9" type="text/css"/><style id="current-color-scheme-1" type="text/css"/><style id="current-color-scheme-10" type="text/css"/><style id="current-color-scheme-6" type="text/css"/><style id="current-color-scheme-7-1" type="text/css"/><style id="current-color-scheme-5-2" type="text/css"/><style id="current-color-scheme-3" type="text/css"/><style id="current-color-scheme-7-75" type="text/css"/><style id="current-color-scheme-5-9" type="text/css"/><style id="current-color-scheme-9-2" type="text/css"/><style id="current-color-scheme-1-2" type="text/css"/><style id="current-color-scheme-10-8" type="text/css"/><style id="current-color-scheme-6-9" type="text/css"/><style id="current-color-scheme-7-1-7" type="text/css"/><style id="current-color-scheme-5-2-3" type="text/css"/><style id="current-color-scheme-106" type="text/css"/><style id="current-color-scheme-7-3" type="text/css"/><style id="current-color-scheme-5-20" type="text/css"/><style id="current-color-scheme-9-6" type="text/css"/><style id="current-color-scheme-1-1" type="text/css"/><style id="current-color-scheme-10-5" type="text/css"/><style id="current-color-scheme-6-5" type="text/css"/><style id="current-color-scheme-7-1-4" type="text/css"/><style id="current-color-scheme-5-2-7" type="text/css"/><linearGradient id="linearGradient1197" x1="24" x2="24" y1="35" y2="13" gradientTransform="translate(0,-1.118091e-5)" gradientUnits="userSpaceOnUse" xlink:href="#linearGradient4582-3"/><linearGradient id="linearGradient870" x1="16" x2="16" y1="312.968" y2="284.332" gradientTransform="matrix(1.4666667,0,0,1.4666667,0.533333,-414.01999)" gradientUnits="userSpaceOnUse" xlink:href="#linearGradient2126"/></defs><metadata id="metadata5"/><g id="layer1" transform="translate(0,-266.64999)"><g id="g1535" transform="translate(35,-15.000005)"><g id="g911" transform="translate(-35,15)"><g id="g5422" transform="translate(-24,-4)"><g id="layer1-6" transform="matrix(1.4666667,0,0,1.4666667,24.533333,-143.37)"><path id="rect938" d="M 6 2 C 3.7839999 2 2 3.7839999 2 6 L 2 42 C 2 44.216 3.7839999 46 6 46 L 42 46 C 44.216 46 46 44.216 46 42 L 46 6 C 46 3.7839999 44.216 2 42 2 L 6 2 z" transform="matrix(0.68181817,0,0,0.68181817,-0.36363613,282.28635)" style="fill:url(#linearGradient870);fill-opacity:1;stroke-width:1"/><path id="rect1182" d="M 7 5 C 5.8919999 5 5 5.891992 5 7 C 5 8.1079934 5.8919999 9 7 9 C 8.1080001 9 9 8.1079934 9 7 C 9 5.891992 8.1080001 5 7 5 z M 41 5 C 39.891999 5 39 5.891992 39 7 C 39 8.1079934 39.891999 9 41 9 C 42.107999 9 43 8.1079934 43 7 C 43 5.891992 42.107999 5 41 5 z M 24 12 C 20.122 12 17 15.122 17 19 L 17 21 C 15.89199 21 15 21.89199 15 23 L 15 34 C 15 35.10801 15.89199 36 17 36 L 31 36 C 32.10801 36 33 35.10801 33 34 L 33 23 C 33 21.89199 32.10801 21 31 21 L 31 19 C 31 15.122 27.878 12 24 12 z M 24 15 C 26.216 15 28 16.784 28 19 L 28 21 L 20 21 L 20 19 C 20 16.784 21.784 15 24 15 z M 7 22 C 5.8919999 22 5 22.891992 5 24 C 5 25.107993 5.8919999 26 7 26 C 8.1080001 26 9 25.107993 9 24 C 9 22.891992 8.1080001 22 7 22 z M 41 22 C 39.891999 22 39 22.891992 39 24 C 39 25.107993 39.891999 26 41 26 C 42.107999 26 43 25.107993 43 24 C 43 22.891992 42.107999 22 41 22 z M 24 25 C 25.107996 25 26 25.892004 26 27 C 26 27.741067 25.595797 28.37905 25 28.724609 L 25 32 L 23 32 L 23 28.724609 C 22.404203 28.37905 22 27.741067 22 27 C 22 25.892004 22.892004 25 24 25 z M 7 39 C 5.8919999 39 5 39.891992 5 41 C 5 42.107993 5.8919999 43 7 43 C 8.1080001 43 9 42.107993 9 41 C 9 39.891992 8.1080001 39 7 39 z M 41 39 C 39.891999 39 39 39.891992 39 41 C 39 42.107993 39.891999 43 41 43 C 42.107999 43 43 42.107993 43 41 C 43 39.891992 42.107999 39 41 39 z" transform="matrix(0.68181817,0,0,0.68181817,-0.36363613,282.28635)" style="opacity:.97000002;fill:url(#linearGradient1197);fill-opacity:1;stroke-width:1"/></g></g></g></g></g></svg>