<svg xmlns="http://www.w3.org/2000/svg" xmlns:svg="http://www.w3.org/2000/svg" xmlns:xlink="http://www.w3.org/1999/xlink" id="svg8" width="48" height="48" version="1.1" viewBox="0 0 48 48"><title id="title7895">Antu icon Theme</title><defs id="defs2"><linearGradient id="linearGradient4836" x1="2102.834" x2="2102.834" y1="-4960.827" y2="-5114.236" gradientTransform="matrix(0.23466667,0,0,0.23466667,-507.60705,1460.7907)" gradientUnits="userSpaceOnUse" xlink:href="#linearGradient4564"/><linearGradient id="linearGradient4564"><stop id="stop4560" offset="0" style="stop-color:#ef0b2c;stop-opacity:1"/><stop id="stop4562" offset="1" style="stop-color:#fc3a56;stop-opacity:1"/></linearGradient><linearGradient id="linearGradient887" x1="-11.142" x2="-13.142" y1="298.65" y2="256.65" gradientTransform="translate(38.142135,-254.64998)" gradientUnits="userSpaceOnUse" xlink:href="#linearGradient4564"/></defs><metadata id="metadata5"/><g id="layer1" transform="translate(0,-266.64999)"><g id="g7392" transform="translate(38.142135,12.000005)"><path style="opacity:1;fill:url(#linearGradient887);fill-opacity:1;stroke:none;stroke-width:.30000001;stroke-miterlimit:4;stroke-dasharray:none;stroke-opacity:1" id="rect4544" d="M 24 2 C 11.812 2 2 11.812 2 24 C 2 36.18797 11.812 46 24 46 C 36.187976 46 46 36.18797 46 24 C 46 11.812 36.187976 2 24 2 z M 24 9 C 32.31 9 39 15.69 39 24 C 39 32.31 32.31 39 24 39 C 15.69 39 9 32.31 9 24 C 9 15.69 15.69 9 24 9 z M 23.949219 14 C 18.409219 14 13.949219 18.46 13.949219 24 C 13.949219 29.54 18.409219 34 23.949219 34 L 24.050781 34 C 29.590781 34 34.050781 29.54 34.050781 24 C 34.050781 18.46 29.590781 14 24.050781 14 L 23.949219 14 z" transform="translate(-38.142135,254.64999)"/></g></g></svg>