<svg xmlns="http://www.w3.org/2000/svg" xmlns:svg="http://www.w3.org/2000/svg" xmlns:xlink="http://www.w3.org/1999/xlink" id="svg8" width="48" height="48" version="1.1" viewBox="0 0 48 48"><title id="title7895">Antu icon Theme</title><defs id="defs2"><linearGradient id="linearGradient10239"><stop id="stop10235" offset="0" style="stop-color:#348be7;stop-opacity:1"/><stop id="stop10237" offset="1" style="stop-color:#3997f1;stop-opacity:1"/></linearGradient><linearGradient id="linearGradient10231"><stop id="stop10227" offset="0" style="stop-color:#3e9ff4;stop-opacity:1"/><stop id="stop10229" offset="1" style="stop-color:#50c2f9;stop-opacity:1"/></linearGradient><linearGradient id="linearGradient842" x1="28.5" x2="26.5" y1="76.936" y2="46.311" gradientTransform="translate(-53.000007,248.65194)" gradientUnits="userSpaceOnUse" xlink:href="#linearGradient10231"/><linearGradient id="linearGradient851" x1="21" x2="18" y1="59.936" y2="33.811" gradientTransform="translate(5.5822152e-7,-30.998047)" gradientUnits="userSpaceOnUse" xlink:href="#linearGradient10239"/><linearGradient id="linearGradient4547"><stop id="stop4543" offset="0" style="stop-color:#c3f7f9;stop-opacity:1"/><stop id="stop4545" offset="1" style="stop-color:#e5fafb;stop-opacity:1"/></linearGradient><linearGradient id="linearGradient915" x1="-30" x2="-31" y1="300.65" y2="289.65" gradientUnits="userSpaceOnUse" xlink:href="#linearGradient4547"/></defs><metadata id="metadata5"/><g id="layer1" transform="translate(0,-266.64999)"><g id="g6914" transform="translate(53.000007,-13)"><g style="stroke:none" id="g989" transform="matrix(1.4999999,0,0,1.4999999,-142.12668,-119.18607)"><path id="path1233" d="M 3,2 C 1.3552936,2 0,3.355295 0,5 v 39 c 0,1.644705 1.3552936,3 3,3 h 42 c 1.644705,0 3,-1.355295 3,-3 V 11 C 48,9.355295 46.644705,8 45,8 H 23.001953 C 22.495972,8 22.2278,7.8332337 21.847656,7.4023438 21.467511,6.9714538 21.081728,6.2735056 20.652344,5.5097656 20.222958,4.7460416 19.742631,3.9122719 19.013672,3.2167969 18.284712,2.5213069 17.250001,2 16,2 Z" transform="matrix(0.66666671,0,0,0.66666671,59.417785,265.89073)" style="color:#000;font-style:normal;font-variant:normal;font-weight:400;font-stretch:normal;font-size:medium;line-height:normal;font-family:sans-serif;font-variant-ligatures:normal;font-variant-position:normal;font-variant-caps:normal;font-variant-numeric:normal;font-variant-alternates:normal;font-feature-settings:normal;text-indent:0;text-align:start;text-decoration:none;text-decoration-line:none;text-decoration-style:solid;text-decoration-color:#000;letter-spacing:normal;word-spacing:normal;text-transform:none;writing-mode:lr-tb;direction:ltr;text-orientation:mixed;dominant-baseline:auto;baseline-shift:baseline;text-anchor:start;white-space:normal;shape-padding:0;clip-rule:nonzero;display:inline;overflow:visible;visibility:visible;opacity:1;isolation:auto;mix-blend-mode:normal;color-interpolation:sRGB;color-interpolation-filters:linearRGB;solid-color:#000;solid-opacity:1;vector-effect:none;fill:url(#linearGradient851);fill-opacity:1;fill-rule:nonzero;stroke:none;stroke-width:1.99999988;stroke-linecap:round;stroke-linejoin:round;stroke-miterlimit:4;stroke-dasharray:none;stroke-dashoffset:0;stroke-opacity:1;color-rendering:auto;image-rendering:auto;shape-rendering:auto;text-rendering:auto;enable-background:accumulate"/></g><path style="opacity:1;vector-effect:none;fill:url(#linearGradient915);fill-opacity:1;stroke:none;stroke-width:2;stroke-linecap:round;stroke-linejoin:round;stroke-miterlimit:4;stroke-dasharray:none;stroke-dashoffset:0;stroke-opacity:1;paint-order:normal" id="rect854" d="m -48.000008,290.64999 h 38 c 1.1080004,0 2.0000004,0.892 2.0000004,2 v 13 c 0,1.108 -0.892,2 -2.0000004,2 h -38 c -1.108,0 -2,-0.892 -2,-2 v -13 c 0,-1.108 0.892,-2 2,-2 z"/><path id="path1270" d="m -30.000007,293.64999 c -1.120722,0 -2.041934,0.58128 -2.654297,1.27539 -0.612363,0.69411 -1.02356,1.49812 -1.4375,2.23438 -0.413939,0.73627 -0.825195,1.3986 -1.275391,1.82812 -0.450195,0.42952 -0.882812,0.66211 -1.632812,0.66211 h -13 c -1.644709,0 -3,1.3553 -3,3 v 21 c 0,1.6447 1.355291,3 3,3 h 42 c 1.644709,0 3,-1.3553 3,-3 v -27 c 0,-1.6447 -1.355291,-3 -3,-3 z" style="color:#000;font-style:normal;font-variant:normal;font-weight:400;font-stretch:normal;font-size:medium;line-height:normal;font-family:sans-serif;font-variant-ligatures:normal;font-variant-position:normal;font-variant-caps:normal;font-variant-numeric:normal;font-variant-alternates:normal;font-feature-settings:normal;text-indent:0;text-align:start;text-decoration:none;text-decoration-line:none;text-decoration-style:solid;text-decoration-color:#000;letter-spacing:normal;word-spacing:normal;text-transform:none;writing-mode:lr-tb;direction:ltr;text-orientation:mixed;dominant-baseline:auto;baseline-shift:baseline;text-anchor:start;white-space:normal;shape-padding:0;clip-rule:nonzero;display:inline;overflow:visible;visibility:visible;opacity:1;isolation:auto;mix-blend-mode:normal;color-interpolation:sRGB;color-interpolation-filters:linearRGB;solid-color:#000;solid-opacity:1;vector-effect:none;fill:url(#linearGradient842);fill-opacity:1;fill-rule:nonzero;stroke:none;stroke-width:1.99999988;stroke-linecap:round;stroke-linejoin:round;stroke-miterlimit:4;stroke-dasharray:none;stroke-dashoffset:0;stroke-opacity:1;color-rendering:auto;image-rendering:auto;shape-rendering:auto;text-rendering:auto;enable-background:accumulate"/></g></g></svg>