<svg xmlns="http://www.w3.org/2000/svg" xmlns:svg="http://www.w3.org/2000/svg" xmlns:xlink="http://www.w3.org/1999/xlink" id="svg8" width="48" height="48" version="1.1" viewBox="0 0 48 48"><title id="title7895">Antu icon Theme</title><defs id="defs2"><linearGradient id="linearGradient1164"><stop style="stop-color:#242a33;stop-opacity:1" id="stop1160" offset="0"/><stop style="stop-color:#4c5a6b;stop-opacity:1" id="stop1162" offset="1"/></linearGradient><linearGradient id="linearGradient832" x1="48" x2="48" y1="315.65" y2="272.65" gradientTransform="translate(0,5e-6)" gradientUnits="userSpaceOnUse" xlink:href="#linearGradient1164"/><linearGradient id="0" x2="0" y1="545.79" y2="501.79" gradientUnits="userSpaceOnUse"><stop id="stop851" stop-color="#197cf1"/><stop id="stop853" offset="1" stop-color="#20bcfa"/></linearGradient><linearGradient id="1" x1="22.03" x2="21.592" y1="49.03" y2=".437" gradientUnits="userSpaceOnUse"><stop id="stop856" stop-color="#212121"/><stop id="stop858" offset="1" stop-color="#3f3f41"/></linearGradient><linearGradient id="0-3" x2="0" y1="545.14" y2="518.14" gradientUnits="userSpaceOnUse"><stop id="stop890" stop-color="#e7e7e7"/><stop id="stop892" offset="1" stop-color="#fcfcfc"/></linearGradient></defs><metadata id="metadata5"/><g id="layer1" transform="translate(0,-266.64999)"><g id="g1535" transform="translate(35,-15.000005)"><g id="g911" transform="translate(-35,15)"><g id="g5422" transform="translate(-24,-4)"><path style="opacity:1;fill:url(#linearGradient832);fill-opacity:1;stroke:none;stroke-width:.30000001;stroke-miterlimit:4;stroke-dasharray:none;stroke-opacity:1" id="rect4544" d="m 48,272.64999 c -12.188,0 -22,9.812 -22,22 0,12.18797 9.812,22 22,22 12.187976,0 22,-9.81203 22,-22 0,-12.188 -9.812024,-22 -22,-22 z"/><path style="opacity:1;vector-effect:none;fill:#dcdddf;fill-opacity:1;stroke:none;stroke-width:4;stroke-linecap:round;stroke-linejoin:round;stroke-miterlimit:4;stroke-dasharray:none;stroke-dashoffset:0;stroke-opacity:1;paint-order:normal" id="rect833" d="m 40,281.64999 c -1.108001,0 -2,0.892 -2,2 v 22 c 0,1.10801 0.891999,2 2,2 h 3 c 1.108001,0 2,-0.89199 2,-2 v -22 c 0,-1.108 -0.891999,-2 -2,-2 z m 13,0 c -1.108001,0 -2,0.892 -2,2 v 22 c 0,1.10801 0.891999,2 2,2 h 3 c 1.108001,0 2,-0.89199 2,-2 v -22 c 0,-1.108 -0.891999,-2 -2,-2 z"/></g></g></g></g></svg>