<svg xmlns="http://www.w3.org/2000/svg" xmlns:svg="http://www.w3.org/2000/svg" xmlns:xlink="http://www.w3.org/1999/xlink" id="svg8" width="48" height="48" version="1.1" viewBox="0 0 48 48"><title id="title7895">Antu icon Theme</title><defs id="defs2"><style id="current-color-scheme" type="text/css"/><style id="current-color-scheme-1" type="text/css"/><style id="current-color-scheme-3" type="text/css"/><style id="current-color-scheme-5" type="text/css"/><style id="current-color-scheme-1-4" type="text/css"/><linearGradient id="0-5" x2="0" y1="545.14" y2="518.14" gradientUnits="userSpaceOnUse"><stop id="stop4164" stop-color="#00a661"/><stop id="stop4166" offset="1" stop-color="#37ce97"/></linearGradient><linearGradient id="linearGradient919-3-6" x1="55" x2="55" y1="311.65" y2="276.65" gradientTransform="translate(1.0000002,-2.9998508)" gradientUnits="userSpaceOnUse" xlink:href="#0-5"/><linearGradient id="linearGradient919-3" x1="55" x2="55" y1="311.65" y2="276.65" gradientTransform="translate(0,-2.0002098)" gradientUnits="userSpaceOnUse" xlink:href="#0-5-6"/><linearGradient id="0-5-6" x2="0" y1="545.14" y2="518.14" gradientUnits="userSpaceOnUse"><stop id="stop4164-7" stop-color="#00a661"/><stop id="stop4166-5" offset="1" stop-color="#37ce97"/></linearGradient></defs><metadata id="metadata5"/><g id="layer1" transform="translate(0,-266.64999)"><g id="g1535" transform="translate(35,-15.000005)"><g id="g911" transform="translate(-35,15)"><g id="g5422" transform="translate(-24,-4)"><path id="path840-3" d="m 41.970703,274.64999 c -0.228395,0.007 -0.447585,0.0915 -0.621094,0.24024 l -14,12 c -0.453416,0.38884 -0.467099,1.08584 -0.0293,1.49218 l 14,13 c 0.639767,0.59256 1.678549,0.13961 1.679688,-0.73242 v -8 h 16 v 9 h -6 c -0.554,0 -1,0.44601 -1,1 v 7 c 0,0.554 0.446,1 1,1 h 7 7 c 0.554,0 1,-0.446 1,-1 v -7 -11 -7 c 0,-0.1385 -0.02766,-0.2709 -0.07813,-0.39062 C 67.770111,283.90102 67.414916,283.64999 67,283.64999 H 43 v -8 c 1.84e-4,-0.56391 -0.465631,-1.01646 -1.029297,-1 z" style="color:#000;font-style:normal;font-variant:normal;font-weight:400;font-stretch:normal;font-size:medium;line-height:normal;font-family:sans-serif;font-variant-ligatures:normal;font-variant-position:normal;font-variant-caps:normal;font-variant-numeric:normal;font-variant-alternates:normal;font-feature-settings:normal;text-indent:0;text-align:start;text-decoration:none;text-decoration-line:none;text-decoration-style:solid;text-decoration-color:#000;letter-spacing:normal;word-spacing:normal;text-transform:none;writing-mode:lr-tb;direction:ltr;text-orientation:mixed;dominant-baseline:auto;baseline-shift:baseline;text-anchor:start;white-space:normal;shape-padding:0;clip-rule:nonzero;display:inline;overflow:visible;visibility:visible;opacity:1;isolation:auto;mix-blend-mode:normal;color-interpolation:sRGB;color-interpolation-filters:linearRGB;solid-color:#000;solid-opacity:1;vector-effect:none;fill:url(#linearGradient919-3);fill-opacity:1;fill-rule:nonzero;stroke:none;stroke-width:2;stroke-linecap:round;stroke-linejoin:round;stroke-miterlimit:4;stroke-dasharray:none;stroke-dashoffset:0;stroke-opacity:1;color-rendering:auto;image-rendering:auto;shape-rendering:auto;text-rendering:auto;enable-background:accumulate"/></g></g></g></g></svg>