<svg xmlns="http://www.w3.org/2000/svg" xmlns:svg="http://www.w3.org/2000/svg" xmlns:xlink="http://www.w3.org/1999/xlink" id="svg8" width="48" height="48" version="1.1" viewBox="0 0 48 48"><title id="title7895">Antu icon Theme</title><defs id="defs2"><style id="current-color-scheme" type="text/css"/><style id="current-color-scheme-1" type="text/css"/><style id="current-color-scheme-3" type="text/css"/><style id="current-color-scheme-5" type="text/css"/><style id="current-color-scheme-1-4" type="text/css"/><linearGradient id="0-5" x2="0" y1="545.14" y2="518.14" gradientUnits="userSpaceOnUse"><stop id="stop4164" stop-color="#00a661"/><stop id="stop4166" offset="1" stop-color="#37ce97"/></linearGradient><linearGradient id="linearGradient919" x1="55" x2="55" y1="311.65" y2="276.65" gradientTransform="translate(-24,-272.64988)" gradientUnits="userSpaceOnUse" xlink:href="#0-5"/><linearGradient id="linearGradient919-3-6" x1="55" x2="55" y1="311.65" y2="276.65" gradientTransform="translate(1.0000002,-2.9998508)" gradientUnits="userSpaceOnUse" xlink:href="#0-5"/></defs><metadata id="metadata5"/><g id="layer1" transform="translate(0,-266.64999)"><g id="g1535" transform="translate(35,-15.000005)"><g id="g911" transform="translate(-35,15)"><g id="g5422" transform="translate(-24,-4)"><path id="path840" d="M 17.970703 4 C 17.742308 4.007 17.523118 4.0914944 17.349609 4.2402344 L 3.3496094 16.240234 C 2.8961934 16.629074 2.8825135 17.326082 3.3203125 17.732422 L 17.320312 30.732422 C 17.960079 31.324982 18.998861 30.87203 19 30 L 19 22 L 35 22 L 35 36 L 15 36 L 15 33 C 15 32.446 14.554 32 14 32 L 7 32 C 6.446 32 6 32.446 6 33 L 6 37 L 6 44 C 6 44.554 6.446 45 7 45 L 14 45 L 36 45 L 43 45 C 43.554 45 43.989929 44.55392 44 44 L 44 37 L 44 21 L 44 14 C 44 13.8615 43.972345 13.729105 43.921875 13.609375 C 43.770119 13.251025 43.414916 13 43 13 L 19 13 L 19 5 C 19.000184 4.43609 18.534369 3.98354 17.970703 4 z" transform="translate(24,270.64999)" style="color:#000;font-style:normal;font-variant:normal;font-weight:400;font-stretch:normal;font-size:medium;line-height:normal;font-family:sans-serif;font-variant-ligatures:normal;font-variant-position:normal;font-variant-caps:normal;font-variant-numeric:normal;font-variant-alternates:normal;font-feature-settings:normal;text-indent:0;text-align:start;text-decoration:none;text-decoration-line:none;text-decoration-style:solid;text-decoration-color:#000;letter-spacing:normal;word-spacing:normal;text-transform:none;writing-mode:lr-tb;direction:ltr;text-orientation:mixed;dominant-baseline:auto;baseline-shift:baseline;text-anchor:start;white-space:normal;shape-padding:0;clip-rule:nonzero;display:inline;overflow:visible;visibility:visible;opacity:1;isolation:auto;mix-blend-mode:normal;color-interpolation:sRGB;color-interpolation-filters:linearRGB;solid-color:#000;solid-opacity:1;vector-effect:none;fill:url(#linearGradient919);fill-opacity:1;fill-rule:nonzero;stroke:none;stroke-width:2;stroke-linecap:round;stroke-linejoin:round;stroke-miterlimit:4;stroke-dasharray:none;stroke-dashoffset:0;stroke-opacity:1;color-rendering:auto;image-rendering:auto;shape-rendering:auto;text-rendering:auto;enable-background:accumulate"/></g></g></g></g></svg>