<svg xmlns="http://www.w3.org/2000/svg" xmlns:svg="http://www.w3.org/2000/svg" id="svg12" width="48" height="48" version="1.1" viewBox="0 0 48 48"><metadata id="metadata18"/><g style="fill:#268bd2" id="g10" transform="matrix(0.68209375,-0.59407715,0.68209375,0.59407715,-7.741,23.946914)"><g id="g832" style="fill:#227dbd;fill-opacity:1"><g id="g972" transform="matrix(0.13859786,-1.009559,1.009559,-0.13859786,7.2576051,36.780052)"><g id="g1103" transform="matrix(1.0747008,0.0747008,0.0747008,1.0747008,-10.875035,-3.1051802)"><path style="fill:#227dbd;fill-opacity:1;stroke-width:1.11453629" id="path2" d="M 20.102703,23.121435 26.789917,29.80866 40.164361,16.43421 33.477139,9.7469999 Z"/><g id="g950" transform="matrix(-0.13859786,1.009559,-1.009559,0.13859786,32.886476,-17.213198)"><path id="path6" d="M 35.67028,0.67100728 28.983058,-6.0162177 15.608622,7.3582323 22.295839,14.045457 Z" style="fill:#227dbd;fill-opacity:1;stroke-width:1.11453629"/><path id="path8" d="M 31.212133,16.274532 H 13.379549 V -1.5580677 Z" style="fill:#227dbd;fill-opacity:1;stroke-width:1.11453629"/></g><path style="fill:#227dbd;fill-opacity:1;stroke-width:1.11453629" id="path2-3" d="m 14.820017,28.40425 6.68721,6.687225 13.374445,-13.37445 -6.687222,-6.68721 z"/><path style="fill:#227dbd;fill-opacity:1;stroke-width:1.11453629" id="path2-3-6" d="m 8.4115531,34.812587 6.6872099,6.687225 13.374445,-13.37445 -6.687222,-6.68721 z"/><path style="fill:#227dbd;fill-opacity:1;stroke-width:1.11453629" id="path2-3-6-7" d="M 11.277519,37.681176 18.955503,30.003208 7.3068782,18.354587 -0.37108981,26.032565 Z"/><path style="fill:#227dbd;fill-opacity:1;stroke-width:1.11453629" id="path2-3-6-7-3" d="M 5.1795483,31.583205 12.857532,23.905237 1.2089073,12.256615 l -7.677968,7.677979 z"/></g></g></g></g></svg>