<svg xmlns="http://www.w3.org/2000/svg" xmlns:svg="http://www.w3.org/2000/svg" xmlns:xlink="http://www.w3.org/1999/xlink" id="svg8" width="48" height="48" version="1.1" viewBox="0 0 48 48"><title id="title7895">Antu icon Theme</title><defs id="defs2"><linearGradient id="linearGradient1164"><stop style="stop-color:#242a33;stop-opacity:1" id="stop1160" offset="0"/><stop style="stop-color:#4c5a6b;stop-opacity:1" id="stop1162" offset="1"/></linearGradient><linearGradient id="linearGradient832" x1="48" x2="48" y1="315.65" y2="272.65" gradientTransform="translate(-24,-270.64999)" gradientUnits="userSpaceOnUse" xlink:href="#linearGradient1164"/><linearGradient id="0" x2="0" y1="545.79" y2="501.79" gradientUnits="userSpaceOnUse"><stop id="stop851" stop-color="#197cf1"/><stop id="stop853" offset="1" stop-color="#20bcfa"/></linearGradient><linearGradient id="1" x1="22.03" x2="21.592" y1="49.03" y2=".437" gradientUnits="userSpaceOnUse"><stop id="stop856" stop-color="#212121"/><stop id="stop858" offset="1" stop-color="#3f3f41"/></linearGradient><linearGradient id="0-3" x2="0" y1="545.14" y2="518.14" gradientUnits="userSpaceOnUse"><stop id="stop890" stop-color="#e7e7e7"/><stop id="stop892" offset="1" stop-color="#fcfcfc"/></linearGradient></defs><metadata id="metadata5"/><g id="layer1" transform="translate(0,-266.64999)"><g id="g1535" transform="translate(35,-15.000005)"><g id="g911" transform="translate(-35,15)"><g id="g5422" transform="translate(-24,-4)"><path style="opacity:1;fill:url(#linearGradient832);fill-opacity:1;stroke:none;stroke-width:.30000001;stroke-miterlimit:4;stroke-dasharray:none;stroke-opacity:1" id="rect4544" d="M 24 2 C 11.812 2 2 11.812 2 24 C 2 36.18797 11.812 46 24 46 C 36.187976 46 46 36.18797 46 24 C 46 11.812 36.187976 2 24 2 z" transform="translate(24,270.64999)"/><path style="color:#000;font-style:normal;font-variant:normal;font-weight:400;font-stretch:normal;font-size:medium;line-height:normal;font-family:sans-serif;font-variant-ligatures:normal;font-variant-position:normal;font-variant-caps:normal;font-variant-numeric:normal;font-variant-alternates:normal;font-feature-settings:normal;text-indent:0;text-align:start;text-decoration:none;text-decoration-line:none;text-decoration-style:solid;text-decoration-color:#000;letter-spacing:normal;word-spacing:normal;text-transform:none;writing-mode:lr-tb;direction:ltr;text-orientation:mixed;dominant-baseline:auto;baseline-shift:baseline;text-anchor:start;white-space:normal;shape-padding:0;clip-rule:nonzero;display:inline;overflow:visible;visibility:visible;opacity:1;isolation:auto;mix-blend-mode:normal;color-interpolation:sRGB;color-interpolation-filters:linearRGB;solid-color:#000;solid-opacity:1;vector-effect:none;fill:#dcdddf;fill-opacity:1;fill-rule:nonzero;stroke:none;stroke-width:2;stroke-linecap:round;stroke-linejoin:round;stroke-miterlimit:4;stroke-dasharray:none;stroke-dashoffset:0;stroke-opacity:1;color-rendering:auto;image-rendering:auto;shape-rendering:auto;text-rendering:auto;enable-background:accumulate" id="path875" d="m 45.970471,283.61874 c -0.210324,0.006 -0.413312,0.0787 -0.580078,0.20703 l -13,10 c -0.519718,0.3997 -0.52066,1.18298 -0.002,1.58399 l 13,10.06054 c 0.657223,0.50754 1.610884,0.0394 1.611328,-0.79101 v -7.99219 l 11.388672,8.81445 c 0.657223,0.50754 1.610884,0.0394 1.611328,-0.79101 v -20.06055 c 1.84e-4,-0.56391 -0.465631,-1.01646 -1.029297,-1 -0.210324,0.006 -0.413312,0.0787 -0.580078,0.20703 l -11.390625,8.76172 v -8 c 1.84e-4,-0.56391 -0.465631,-1.01646 -1.029297,-1 z"/></g></g></g></g></svg>