<svg xmlns="http://www.w3.org/2000/svg" xmlns:svg="http://www.w3.org/2000/svg" xmlns:xlink="http://www.w3.org/1999/xlink" id="svg8" width="48" height="48" version="1.1" viewBox="0 0 48 48"><title id="title7895">Antu icon Theme</title><defs id="defs2"><linearGradient id="linearGradient983"><stop id="stop979" offset="0" style="stop-color:#e5e5e5;stop-opacity:1"/><stop id="stop981" offset="1" style="stop-color:#fbfbfb;stop-opacity:1"/></linearGradient><linearGradient id="linearGradient4587"><stop id="stop4583" offset="0" style="stop-color:#1b87f2;stop-opacity:1"/><stop id="stop4585" offset="1" style="stop-color:#30bafc;stop-opacity:1"/></linearGradient><linearGradient id="linearGradient867" x1="49" x2="49" y1="315.65" y2="272.65" gradientTransform="translate(-24,-270.64999)" gradientUnits="userSpaceOnUse" xlink:href="#linearGradient4506"/><linearGradient id="linearGradient4506"><stop style="stop-color:#252a34;stop-opacity:1" id="stop4502" offset="0"/><stop style="stop-color:#353d4b;stop-opacity:1" id="stop4504" offset="1"/></linearGradient><style id="current-color-scheme" type="text/css"/><style id="current-color-scheme-1" type="text/css"/><style id="current-color-scheme-3" type="text/css"/><style id="current-color-scheme-5" type="text/css"/><style id="current-color-scheme-1-4" type="text/css"/><linearGradient id="linearGradient979"><stop id="stop975" offset="0" style="stop-color:#858888;stop-opacity:1"/><stop id="stop977" offset="1" style="stop-color:#a1abae;stop-opacity:1"/></linearGradient><linearGradient id="linearGradient875" x1="30" x2="30" y1="310.15" y2="297.15" gradientUnits="userSpaceOnUse" xlink:href="#linearGradient4587"/><linearGradient id="linearGradient883" x1="38" x2="38" y1="309.15" y2="298.15" gradientUnits="userSpaceOnUse" xlink:href="#linearGradient983"/><linearGradient id="linearGradient875-3" x1="30" x2="30" y1="310.15" y2="297.15" gradientTransform="matrix(-1,0,0,1,63,24)" gradientUnits="userSpaceOnUse" xlink:href="#linearGradient979"/><linearGradient id="linearGradient883-5" x1="38" x2="38" y1="309.15" y2="298.15" gradientTransform="matrix(-1,0,0,1,63,24)" gradientUnits="userSpaceOnUse" xlink:href="#linearGradient983"/><linearGradient id="linearGradient932" x1="30" x2="30" y1="310.15" y2="297.15" gradientTransform="matrix(-1,0,0,1,63,24)" gradientUnits="userSpaceOnUse" xlink:href="#linearGradient979"/></defs><metadata id="metadata5"/><g id="layer1" transform="translate(0,-266.64999)"><g id="g1535" transform="translate(35,-15.000005)"><g id="g1089"><g id="g5422" transform="translate(-59,11)"><path id="rect854" d="M 5 2 C 3.338 2 2 3.338 2 5 L 2 43 C 2 44.662 3.338 46 5 46 L 43 46 C 44.662 46 46 44.662 46 43 L 46 5 C 46 3.338 44.662 2 43 2 L 5 2 z" transform="translate(24,270.64999)" style="opacity:1;fill:url(#linearGradient867);fill-opacity:1;stroke:none;stroke-width:3.88529491;stroke-linecap:round;stroke-linejoin:round;stroke-miterlimit:4;stroke-dasharray:none;stroke-opacity:1"/></g><g id="g882" transform="translate(0,-10.499995)"><g id="g940" transform="translate(0,-0.5)"><g id="g924" transform="translate(-42,4.24999)"><path id="rect846" d="m 24.500002,296.14999 h 12.999996 c 4.155001,0 7.500002,3.345 7.500002,7.50001 0,4.155 -3.345001,7.5 -7.500002,7.5 H 24.500002 C 20.345001,311.15 17,307.805 17,303.65 c 0,-4.15501 3.345001,-7.50001 7.500002,-7.50001 z" style="opacity:1;vector-effect:none;fill:url(#linearGradient875);fill-opacity:1;stroke:none;stroke-width:2;stroke-linecap:round;stroke-linejoin:round;stroke-miterlimit:4;stroke-dasharray:none;stroke-dashoffset:0;stroke-opacity:1;paint-order:normal"/><path id="rect848" d="m 37.499998,297.14999 h 4e-6 c 3.600999,0 6.499998,2.899 6.499998,6.5 0,3.601 -2.898999,6.5 -6.499998,6.5 h -4e-6 c -3.600999,0 -6.499998,-2.899 -6.499998,-6.5 0,-3.601 2.898999,-6.5 6.499998,-6.5 z" style="opacity:1;vector-effect:none;fill:url(#linearGradient883);fill-opacity:1;stroke:none;stroke-width:2;stroke-linecap:round;stroke-linejoin:round;stroke-miterlimit:4;stroke-dasharray:none;stroke-dashoffset:0;stroke-opacity:1;paint-order:normal"/></g><g id="g928" transform="translate(-43,-2.50001)"><path id="rect846-6" d="M 38.499998,320.14999 H 25.500002 C 21.345001,320.14999 18,323.49499 18,327.65 c 0,4.155 3.345001,7.5 7.500002,7.5 H 38.499998 C 42.654999,335.15 46,331.805 46,327.65 c 0,-4.15501 -3.345001,-7.50001 -7.500002,-7.50001 z" style="opacity:1;vector-effect:none;fill:url(#linearGradient932);fill-opacity:1;stroke:none;stroke-width:2;stroke-linecap:round;stroke-linejoin:round;stroke-miterlimit:4;stroke-dasharray:none;stroke-dashoffset:0;stroke-opacity:1;paint-order:normal"/><path id="rect848-2" d="m 25.500002,321.14999 h -4e-6 c -3.600999,0 -6.499998,2.899 -6.499998,6.5 0,3.601 2.898999,6.5 6.499998,6.5 h 4e-6 c 3.600999,0 6.499998,-2.899 6.499998,-6.5 0,-3.601 -2.898999,-6.5 -6.499998,-6.5 z" style="opacity:1;vector-effect:none;fill:url(#linearGradient883-5);fill-opacity:1;stroke:none;stroke-width:2;stroke-linecap:round;stroke-linejoin:round;stroke-miterlimit:4;stroke-dasharray:none;stroke-dashoffset:0;stroke-opacity:1;paint-order:normal"/></g></g></g></g></g></g></svg>