<svg xmlns="http://www.w3.org/2000/svg" xmlns:svg="http://www.w3.org/2000/svg" xmlns:xlink="http://www.w3.org/1999/xlink" id="Capa_1" x="0" y="0" version="1.1" viewBox="0 0 58 58" xml:space="preserve" style="enable-background:new 0 0 58 58"><metadata id="metadata43"/><defs id="defs41"><linearGradient id="linearGradient1105"><stop style="stop-color:#019ac9;stop-opacity:1" id="stop1101" offset="0"/><stop style="stop-color:#91e5fd;stop-opacity:1" id="stop1103" offset="1"/></linearGradient><clipPath id="clipPath1774" clipPathUnits="userSpaceOnUse"><path style="opacity:1;fill-opacity:1;stroke:none;stroke-width:25.65397453;stroke-linecap:round;stroke-linejoin:round;stroke-miterlimit:4;stroke-dasharray:none;stroke-opacity:1;paint-order:stroke markers fill" id="path1776" d="M 576.85567,1.9102362e-4 A 576.85532,580.7395 0 0 0 2.5984252e-4,580.7404 576.85532,580.7395 0 0 0 576.85567,1161.4786 576.85532,580.7395 0 0 0 919.00807,1047.4709 l 149.03903,132.1347 a 79.092908,79.62547 0 1 0 104.5372,-119.5098 L 1032.4261,935.8381 A 576.85532,580.7395 0 0 0 1153.7111,580.7404 576.85532,580.7395 0 0 0 576.85567,1.9102362e-4 Z m 0,71.91010097638 A 505.4261,508.82934 0 0 1 1082.2814,580.7384 505.4261,508.82934 0 0 1 576.85567,1089.5686 505.4261,508.82934 0 0 1 71.429861,580.7384 505.4261,508.82934 0 0 1 576.85567,71.910292 Z"/></clipPath><linearGradient id="linearGradient4300" x1="37.624" x2="74.762" y1="20.781" y2="77.428" gradientTransform="matrix(2.6770173,0,0,2.6770171,-93.052904,-5.1936417)" gradientUnits="userSpaceOnUse" xlink:href="#linearGradient1105"/></defs><path style="fill:#434a61" id="path2" d="M46.324,52.5H1.565c-1.03,0-1.779-0.978-1.51-1.973l10.166-27.871 c0.184-0.682,0.803-1.156,1.51-1.156H56.49c1.03,0,1.51,0.984,1.51,1.973L47.834,51.344C47.65,52.026,47.031,52.5,46.324,52.5z"/><g id="g6" style="opacity:.77399998;fill:#009cf0"><path style="fill:#5d6686" id="path4" d="M 50.268,12.5 H 25 l -5,-7 H 1.732 C 0.776,5.5 0,6.275 0,7.232 V 49.96 c 0.069,0.002 0.138,0.006 0.205,0.01 L 10.22,22.656 C 10.404,21.973 11.023,21.5 11.73,21.5 H 52 V 14.232 C 52,13.275 51.224,12.5 50.268,12.5 Z"/></g></svg>