<svg xmlns="http://www.w3.org/2000/svg" xmlns:svg="http://www.w3.org/2000/svg" xmlns:xlink="http://www.w3.org/1999/xlink" id="svg8" width="48" height="48" version="1.1" viewBox="0 0 48 48"><title id="title7895">Antu icon Theme</title><defs id="defs2"><linearGradient id="linearGradient983"><stop id="stop979" offset="0" style="stop-color:#e5e5e5;stop-opacity:1"/><stop id="stop981" offset="1" style="stop-color:#fbfbfb;stop-opacity:1"/></linearGradient><linearGradient id="linearGradient4836" x1="2102.834" x2="2102.834" y1="-4960.827" y2="-5114.236" gradientTransform="matrix(0.23466667,0,0,0.23466667,-445.46491,1476.7907)" gradientUnits="userSpaceOnUse" xlink:href="#linearGradient4587"/><linearGradient id="linearGradient4587"><stop id="stop4583" offset="0" style="stop-color:#1b87f2;stop-opacity:1"/><stop id="stop4585" offset="1" style="stop-color:#30bafc;stop-opacity:1"/></linearGradient><linearGradient id="linearGradient849" x1="-12" x2="-12" y1="313.65" y2="296.65" gradientTransform="translate(35,-281.64999)" gradientUnits="userSpaceOnUse" xlink:href="#linearGradient4587"/><linearGradient id="linearGradient859" x1="30" x2="30" y1="31" y2="17" gradientUnits="userSpaceOnUse" xlink:href="#linearGradient983"/><linearGradient id="linearGradient867" x1="49" x2="49" y1="315.65" y2="272.65" gradientTransform="translate(-24,-270.64999)" gradientUnits="userSpaceOnUse" xlink:href="#linearGradient4506"/><linearGradient id="linearGradient4506"><stop style="stop-color:#252a34;stop-opacity:1" id="stop4502" offset="0"/><stop style="stop-color:#353d4b;stop-opacity:1" id="stop4504" offset="1"/></linearGradient><style id="current-color-scheme" type="text/css"/><style id="current-color-scheme-1" type="text/css"/><style id="current-color-scheme-3" type="text/css"/><style id="current-color-scheme-5" type="text/css"/><style id="current-color-scheme-1-4" type="text/css"/><linearGradient id="0" x2="0" y1="545.14" y2="518.14" gradientUnits="userSpaceOnUse"><stop id="stop4164" stop-color="#00a661"/><stop id="stop4166" offset="1" stop-color="#37ce97"/></linearGradient></defs><metadata id="metadata5"/><g id="layer1" transform="translate(0,-266.64999)"><g id="g1535" transform="translate(35,-15.000005)"><g id="g1089"><g id="g5422" transform="translate(-59,11)"><path id="rect854" d="M 5 2 C 3.338 2 2 3.338 2 5 L 2 43 C 2 44.662 3.338 46 5 46 L 43 46 C 44.662 46 46 44.662 46 43 L 46 5 C 46 3.338 44.662 2 43 2 L 5 2 z" transform="translate(24,270.64999)" style="opacity:1;fill:url(#linearGradient867);fill-opacity:1;stroke:none;stroke-width:3.88529491;stroke-linecap:round;stroke-linejoin:round;stroke-miterlimit:4;stroke-dasharray:none;stroke-opacity:1"/></g><path id="rect980" d="M 18 15 C 13.014001 15 9 19.014 9 24 C 9 28.986 13.014001 33 18 33 L 30 33 C 34.985999 33 39 28.986 39 24 C 39 19.014 34.985999 15 30 15 L 18 15 z" transform="translate(-35,281.64999)" style="opacity:1;fill:url(#linearGradient849);fill-opacity:1;stroke:none;stroke-width:2;stroke-linecap:round;stroke-linejoin:round;stroke-miterlimit:4;stroke-dasharray:none;stroke-opacity:1"/><path id="rect984" d="M 30 17 C 26.122 17 23 20.122 23 24 C 23 27.878 26.122 31 30 31 C 33.878 31 37 27.878 37 24 C 37 20.122 33.878 17 30 17 z" transform="translate(-35,281.64999)" style="opacity:1;fill:url(#linearGradient859);fill-opacity:1;stroke:none;stroke-width:2;stroke-linecap:round;stroke-linejoin:round;stroke-miterlimit:4;stroke-dasharray:none;stroke-opacity:1"/></g></g></g></svg>