<svg xmlns="http://www.w3.org/2000/svg" xmlns:svg="http://www.w3.org/2000/svg" xmlns:xlink="http://www.w3.org/1999/xlink" id="svg8" width="48" height="48" version="1.1" viewBox="0 0 48 48"><title id="title7895">Antu icon Theme</title><defs id="defs2"><linearGradient id="linearGradient1164"><stop style="stop-color:#242a33;stop-opacity:1" id="stop1160" offset="0"/><stop style="stop-color:#4c5a6b;stop-opacity:1" id="stop1162" offset="1"/></linearGradient><linearGradient id="linearGradient832" x1="48" x2="48" y1="315.65" y2="272.65" gradientTransform="translate(-24,-270.64999)" gradientUnits="userSpaceOnUse" xlink:href="#linearGradient1164"/></defs><metadata id="metadata5"/><g id="layer1" transform="translate(0,-266.64999)"><g id="g1535" transform="translate(35,-15.000005)"><g id="g911" transform="translate(-35,15)"><g id="g5422" transform="translate(-24,-4)"><path style="opacity:1;fill:url(#linearGradient832);fill-opacity:1;stroke:none;stroke-width:.30000001;stroke-miterlimit:4;stroke-dasharray:none;stroke-opacity:1" id="rect4544" d="M 24 2 C 11.812 2 2 11.812 2 24 C 2 36.18797 11.812 46 24 46 C 36.187976 46 46 36.18797 46 24 C 46 11.812 36.187976 2 24 2 z" transform="translate(24,270.64999)"/><path style="color:#000;font-style:normal;font-variant:normal;font-weight:400;font-stretch:normal;font-size:medium;line-height:normal;font-family:sans-serif;font-variant-ligatures:normal;font-variant-position:normal;font-variant-caps:normal;font-variant-numeric:normal;font-variant-alternates:normal;font-feature-settings:normal;text-indent:0;text-align:start;text-decoration:none;text-decoration-line:none;text-decoration-style:solid;text-decoration-color:#000;letter-spacing:normal;word-spacing:normal;text-transform:none;writing-mode:lr-tb;direction:ltr;text-orientation:mixed;dominant-baseline:auto;baseline-shift:baseline;text-anchor:start;white-space:normal;shape-padding:0;clip-rule:nonzero;display:inline;overflow:visible;visibility:visible;opacity:1;isolation:auto;mix-blend-mode:normal;color-interpolation:sRGB;color-interpolation-filters:linearRGB;solid-color:#000;solid-opacity:1;vector-effect:none;fill:#dcdddf;fill-opacity:1;fill-rule:nonzero;stroke:none;stroke-width:2;stroke-linecap:round;stroke-linejoin:round;stroke-miterlimit:4;stroke-dasharray:none;stroke-dashoffset:0;stroke-opacity:1;color-rendering:auto;image-rendering:auto;shape-rendering:auto;text-rendering:auto;enable-background:accumulate" id="path875" d="M 25.970703 12.96875 C 25.760379 12.97475 25.557391 13.047451 25.390625 13.175781 L 13 22.707031 L 13 14 C 13 13.446 12.554 13 12 13 L 10 13 C 9.446 13 9 13.446 9 14 L 9 34 C 9 34.554 9.446 35 10 35 L 12 35 C 12.554 35 13 34.554 13 34 L 13 25.232422 L 25.388672 34.820312 C 26.045895 35.327853 26.999556 34.859707 27 34.029297 L 27 26.8125 L 37.388672 34.851562 C 38.045895 35.359103 38.999556 34.890957 39 34.060547 L 39 14 C 39.000184 13.43609 38.534369 12.98354 37.970703 13 C 37.760379 13.006 37.557391 13.078701 37.390625 13.207031 L 27 21.199219 L 27 13.96875 C 27.000184 13.40484 26.534369 12.95229 25.970703 12.96875 z" transform="translate(24,270.64999)"/></g></g></g></g></svg>