<svg xmlns="http://www.w3.org/2000/svg" xmlns:svg="http://www.w3.org/2000/svg" xmlns:xlink="http://www.w3.org/1999/xlink" id="svg8" width="48" height="48" version="1.1" viewBox="0 0 48 48"><title id="title7895">Antu icon Theme</title><defs id="defs2"><linearGradient id="linearGradient979"><stop id="stop975" offset="0" style="stop-color:#858888;stop-opacity:1"/><stop id="stop977" offset="1" style="stop-color:#a1abae;stop-opacity:1"/></linearGradient><linearGradient id="linearGradient834" x1="49" x2="48" y1="315.65" y2="273.65" gradientTransform="translate(-24,-270.64999)" gradientUnits="userSpaceOnUse" xlink:href="#linearGradient979"/></defs><metadata id="metadata5"/><g id="layer1" transform="translate(0,-266.64999)"><g id="g1535" transform="translate(35,-15.000005)"><g id="g911" transform="translate(-35,15)"><g id="g5422" transform="translate(-24,-4)"><path style="opacity:1;fill:url(#linearGradient834);fill-opacity:1;stroke:none;stroke-width:.30000001;stroke-miterlimit:4;stroke-dasharray:none;stroke-opacity:1" id="rect4544" d="M 24 2 C 11.812 2 2 11.812 2 24 C 2 36.18797 11.812 46 24 46 C 36.187976 46 46 36.18797 46 24 C 46 11.812 36.187976 2 24 2 z" transform="translate(24,270.64999)"/><path style="opacity:1;fill:#f6f6f6;fill-opacity:1;stroke:none;stroke-width:1.63663411;stroke-linecap:round;stroke-linejoin:round;stroke-miterlimit:4;stroke-dasharray:none;stroke-opacity:1" id="rect829" d="M 24 9 C 15.69 9 9 15.69 9 24 C 9 32.31 15.69 39 24 39 C 32.31 39 39 32.31 39 24 C 39 15.69 32.31 9 24 9 z M 24 14 C 29.54 14 34 18.46 34 24 L 14 24 C 14 18.46 18.46 14 24 14 z M 15.339844 29 L 32.660156 29 C 30.935216 31.990157 27.713707 34 24 34 C 20.286293 34 17.064784 31.990157 15.339844 29 z" transform="translate(24,270.64999)"/></g></g></g></g></svg>