<svg xmlns="http://www.w3.org/2000/svg" xmlns:svg="http://www.w3.org/2000/svg" xmlns:xlink="http://www.w3.org/1999/xlink" id="svg8" width="48" height="48" version="1.1" viewBox="0 0 48 48"><title id="title7895">Antu icon Theme</title><defs id="defs2"><linearGradient id="linearGradient4902"><stop id="stop4898" offset="0" style="stop-color:#5563b2;stop-opacity:1"/><stop id="stop4900" offset="1" style="stop-color:#7986cb;stop-opacity:1"/></linearGradient><linearGradient id="linearGradient832" x1="48" x2="48" y1="315.65" y2="272.65" gradientTransform="translate(-24,-270.64999)" gradientUnits="userSpaceOnUse" xlink:href="#linearGradient4902"/></defs><metadata id="metadata5"/><g id="layer1" transform="translate(0,-266.64999)"><g id="g1535" transform="translate(35,-15.000005)"><g id="g911" transform="translate(-35,15)"><g id="g5422" transform="translate(-24,-4)"><path style="opacity:1;fill:url(#linearGradient832);fill-opacity:1;stroke:none;stroke-width:.30000001;stroke-miterlimit:4;stroke-dasharray:none;stroke-opacity:1" id="rect4544" d="M 24 2 C 11.812 2 2 11.812 2 24 C 2 36.18797 11.812 46 24 46 C 36.187976 46 46 36.18797 46 24 C 46 11.812 36.187976 2 24 2 z" transform="translate(24,270.64999)"/><g id="g973" transform="translate(0.999555)"><path id="path954" d="m 44.817383,281.91367 a 13,13 0 0 0 -10.460938,12.73632 13,13 0 0 0 13,13 13,13 0 0 0 12.287109,-8.79687 12,12 0 0 1 -1.076171,0.35937 12,12 0 0 1 -1.171876,0.26368 12,12 0 0 1 -1.189453,0.14453 12,12 0 0 1 -0.849609,0.0293 12,12 0 0 1 -1.197266,-0.0605 12,12 0 0 1 -1.1875,-0.17774 12,12 0 0 1 -1.162109,-0.29687 12,12 0 0 1 -1.126953,-0.41211 12,12 0 0 1 -1.080078,-0.52149 12,12 0 0 1 -1.021485,-0.62695 12,12 0 0 1 -0.955078,-0.72656 12,12 0 0 1 -0.876953,-0.81641 12,12 0 0 1 -0.792969,-0.90234 12,12 0 0 1 -0.697265,-0.97461 12,12 0 0 1 -0.597656,-1.04102 12,12 0 0 1 -0.488282,-1.0957 12,12 0 0 1 -0.378906,-1.13672 12,12 0 0 1 -0.263672,-1.17187 12,12 0 0 1 -0.144531,-1.18946 12,12 0 0 1 -0.0293,-0.84961 12,12 0 0 1 0.06055,-1.19726 12,12 0 0 1 0.177734,-1.1875 12,12 0 0 1 0.296875,-1.16211 12,12 0 0 1 0.41211,-1.12695 12,12 0 0 1 0.513672,-1.0625 z" style="opacity:1;fill:#ebecf4;fill-opacity:1;stroke:none;stroke-width:3.3565855;stroke-linecap:round;stroke-linejoin:round;stroke-miterlimit:4;stroke-dasharray:none;stroke-opacity:1"/></g></g></g></g></g></svg>