<svg xmlns="http://www.w3.org/2000/svg" xmlns:svg="http://www.w3.org/2000/svg" xmlns:xlink="http://www.w3.org/1999/xlink" id="svg8" width="48" height="48" version="1.1" viewBox="0 0 48 48"><title id="title7895">Antu icon Theme</title><defs id="defs2"><linearGradient id="linearGradient4564"><stop id="stop4560" offset="0" style="stop-color:#ef0b2c;stop-opacity:1"/><stop id="stop4562" offset="1" style="stop-color:#fc3a56;stop-opacity:1"/></linearGradient><linearGradient id="linearGradient838" x1="25" x2="25" y1="309.65" y2="278.65" gradientTransform="translate(0,-266.64999)" gradientUnits="userSpaceOnUse" xlink:href="#linearGradient4564"/><linearGradient id="linearGradient835" x1="25" x2="25" y1="309.65" y2="278.65" gradientTransform="translate(0,-266.64999)" gradientUnits="userSpaceOnUse" xlink:href="#linearGradient4564"/></defs><metadata id="metadata5"/><g id="layer1" transform="translate(0,-266.64999)"><path style="opacity:1;vector-effect:none;fill:#9a091e;fill-opacity:1;stroke:none;stroke-width:2;stroke-linecap:round;stroke-linejoin:round;stroke-miterlimit:4;stroke-dasharray:none;stroke-dashoffset:0;stroke-opacity:1;paint-order:normal" id="rect824" d="m 2,284.64999 h 44 v 13 H 2 Z"/><g id="g2556"><path style="opacity:1;vector-effect:none;fill:#15272f;fill-opacity:1;stroke:none;stroke-width:6;stroke-linecap:round;stroke-linejoin:round;stroke-miterlimit:4;stroke-dasharray:none;stroke-dashoffset:0;stroke-opacity:1" id="rect1644" d="M 14 4 C 12.892002 4 12 4.892 12 6 L 12 9 L 12 14 L 12 15 L 12 16 L 16 16 L 16 15 L 16 8 L 32 8 L 32 15 L 32 16 L 34 16 L 35 16 L 36 16 L 36 15 L 36 14 L 36 9 L 36 6 C 36 4.892 35.108 4 34 4 L 14 4 z" transform="translate(0,266.64999)"/><path style="opacity:1;vector-effect:none;fill:url(#linearGradient838);fill-opacity:1;stroke:none;stroke-width:6;stroke-linecap:round;stroke-linejoin:round;stroke-miterlimit:4;stroke-dasharray:none;stroke-dashoffset:0;stroke-opacity:1" id="path831" d="M 2 25 L 2 41 C 2 42.662 3.338 44 5 44 L 43 44 C 44.662 44 46 42.662 46 41 L 46 25 L 34 25 L 34 29 L 26 29 L 26 25 L 22 25 L 22 29 L 14 29 L 14 25 L 2 25 z" transform="translate(0,266.64999)"/><path style="opacity:1;vector-effect:none;fill:url(#linearGradient835);fill-opacity:1;stroke:none;stroke-width:6;stroke-linecap:round;stroke-linejoin:round;stroke-miterlimit:4;stroke-dasharray:none;stroke-dashoffset:0;stroke-opacity:1" id="rect2544" d="M 5 12 C 3.338 12 2 13.338 2 15 L 2 23 L 14 23 L 14 19 L 22 19 L 22 23 L 26 23 L 26 19 L 34 19 L 34 23 L 46 23 L 46 15 C 46 13.338 44.662 12 43 12 L 5 12 z" transform="translate(0,266.64999)"/><path id="rect1818" d="m 16,287.64999 v 6 h 4 v -6 z m 12,0 v 6 h 4 v -6 z" style="opacity:1;vector-effect:none;fill:#fff;fill-opacity:1;stroke:none;stroke-width:6;stroke-linecap:round;stroke-linejoin:round;stroke-miterlimit:4;stroke-dasharray:none;stroke-dashoffset:0;stroke-opacity:1"/></g></g></svg>