<svg xmlns="http://www.w3.org/2000/svg" xmlns:svg="http://www.w3.org/2000/svg" xmlns:xlink="http://www.w3.org/1999/xlink" id="svg8" width="48" height="48" version="1.1" viewBox="0 0 48 48"><title id="title7895">Antu icon Theme</title><defs id="defs2"><linearGradient id="linearGradient959" x1="24" x2="24" y1="309.275" y2="273.65" gradientTransform="translate(-2)" gradientUnits="userSpaceOnUse" xlink:href="#linearGradient4582"/><linearGradient id="linearGradient4582"><stop id="stop4578" offset="0" style="stop-color:#dd366b;stop-opacity:1"/><stop id="stop4580" offset="1" style="stop-color:#f25183;stop-opacity:1"/></linearGradient><linearGradient id="linearGradient4656"><stop id="stop4652" offset="0" style="stop-color:#e4e4e4;stop-opacity:1"/><stop id="stop4654" offset="1" style="stop-color:#fbfbfb;stop-opacity:1"/></linearGradient><linearGradient id="linearGradient4602"><stop id="stop4598" offset="0" style="stop-color:#228ee9;stop-opacity:1"/><stop id="stop4600" offset="1" style="stop-color:#2eb5fd;stop-opacity:1"/></linearGradient><linearGradient id="linearGradient968" x1="2.694" x2="2.694" y1="293.921" y2="289.111" gradientUnits="userSpaceOnUse" xlink:href="#linearGradient4602"/><linearGradient id="linearGradient978" x1="5.388" x2="5.388" y1="296.615" y2="291.612" gradientUnits="userSpaceOnUse" xlink:href="#linearGradient4656"/><linearGradient id="linearGradient847" x1="16.849" x2="16.709" y1="297.969" y2="268.801" gradientTransform="translate(0,-266.64999)" gradientUnits="userSpaceOnUse" xlink:href="#linearGradient4602"/><linearGradient id="linearGradient856" x1="31.645" x2="32.3" y1="310.908" y2="282.27" gradientTransform="translate(0,-266.64999)" gradientUnits="userSpaceOnUse" xlink:href="#linearGradient4656"/></defs><metadata id="metadata5"/><g id="layer1" transform="translate(0,-266.64999)"><g id="g1221"><path style="opacity:1;fill:url(#linearGradient856);fill-opacity:1;stroke:none;stroke-width:4.00222683;stroke-linecap:round;stroke-linejoin:round;stroke-miterlimit:4;stroke-dasharray:none;stroke-opacity:1" id="rect927-1" d="M 18 16 C 16.892001 16 16 16.89203 16 18 L 16 44 C 16 45.10802 16.892001 46 18 46 L 44 46 C 45.108 46 46 45.10802 46 44 L 46 18 C 46 16.89203 45.108 16 44 16 L 18 16 z" transform="translate(0,266.64999)"/><g style="fill:#666;fill-opacity:1" id="layer1-3-3-1" transform="matrix(5.1968504,0,0,5.1968504,2.0000003,-1230.8145)"><path id="rect1107-2" d="m 28,19 v 2 h -4 v 14 h 12 v 3 h -2 v -2 h -2 v 2 h -2 v -2 h -2 v 2 h -2 v -2 h -2 v 2 2 1 h 2 v -1 h 10 v 1 h -2 v 2 h 4 V 41 34 33 H 26 V 31 H 38 V 21 h -7 v -2 z m -2,4 h 10 v 2 H 26 Z m 0,4 h 10 v 2 H 26 Z" transform="matrix(0.19242424,0,0,0.19242424,-0.38484847,288.14847)" style="opacity:1;fill:#666;fill-opacity:1;stroke:none;stroke-width:4;stroke-linecap:round;stroke-linejoin:round;stroke-miterlimit:4;stroke-dasharray:none;stroke-opacity:1"/></g><path style="opacity:1;fill:url(#linearGradient847);fill-opacity:1;stroke:none;stroke-width:4.00222683;stroke-linecap:round;stroke-linejoin:round;stroke-miterlimit:4;stroke-dasharray:none;stroke-opacity:1" id="rect927" d="M 4 2 C 2.8920001 2 2 2.89203 2 4 L 2 30 C 2 31.10802 2.8920001 32 4 32 L 30 32 C 31.108 32 32 31.10802 32 30 L 32 4 C 32 2.89203 31.108 2 30 2 L 4 2 z" transform="translate(0,266.64999)"/><g id="layer1-6-5" transform="matrix(1.4666667,0,0,1.4666667,-5.733334,-155.37001)"><path id="path1022" d="m 21,15 -8,16.999996 5,2 L 20,29 h 8 l 2,5 5,-2 -8,-17 z m 3,4 3,6 h -6 z" transform="matrix(0.68181817,0,0,0.68181817,-0.86363596,282.28636)" style="fill:#fff;fill-opacity:1;stroke:none;stroke-width:1px;stroke-linecap:butt;stroke-linejoin:miter;stroke-opacity:1"/></g></g></g></svg>