<svg xmlns="http://www.w3.org/2000/svg" xmlns:svg="http://www.w3.org/2000/svg" xmlns:xlink="http://www.w3.org/1999/xlink" id="svg1399" width="32" height="32" version="1.1" viewBox="0 0 8.467 8.467"><defs id="defs1393"><style id="current-color-scheme" type="text/css"/><style id="current-color-scheme-7" type="text/css"/><linearGradient id="linearGradient875" x1="16" x2="16" y1="31" y2="1" gradientUnits="userSpaceOnUse" xlink:href="#linearGradient4627"/><linearGradient id="linearGradient4627"><stop id="stop4623" offset="0" style="stop-color:#ffc900;stop-opacity:1"/><stop id="stop4625" offset="1" style="stop-color:#ffe200;stop-opacity:1"/></linearGradient></defs><metadata id="metadata1396"/><g id="layer1" transform="translate(0,-288.53338)"><g style="fill:#4a5599;fill-opacity:1" id="g1819" transform="translate(8.2757846,-2.3958568)"><path id="rect4496" d="M 16 1 C 7.6900008 1 1 7.6899146 1 16 C 1 24.309934 7.6900008 31 16 31 C 24.31 31 31 24.309934 31 16 C 31 7.6899146 24.31 1 16 1 z" transform="matrix(0.26458332,0,0,0.26458332,-8.2757846,290.92924)" style="fill:url(#linearGradient875);fill-opacity:1;stroke:none;stroke-width:1.46965909;stroke-linecap:round;stroke-linejoin:round;stroke-miterlimit:4;stroke-dasharray:none;stroke-opacity:1"/></g><path id="path944" d="m 4.2333331,289.8563 c -1.0197433,0 -1.8520832,0.83234 -1.8520832,1.85208 a 0.26460978,0.26460978 0 0 0 0.2645833,0.26458 h 0.7937499 a 0.26460978,0.26460978 0 0 0 0.2645834,-0.26458 c 0,-0.29538 0.2337821,-0.52917 0.5291666,-0.52917 0.2953845,0 0.5291666,0.23379 0.5291666,0.52917 0,0.20947 -0.056544,0.34116 -0.1555461,0.47646 -0.099003,0.1353 -0.2495926,0.26597 -0.418579,0.41806 -0.3379727,0.30418 -0.7487915,0.73708 -0.7487915,1.48673 a 0.26460978,0.26460978 0 0 0 0.2645834,0.26458 h 0.7937499 a 0.26460978,0.26460978 0 0 0 0.2645833,-0.26458 c 0,-0.20946 0.056544,-0.34116 0.1555462,-0.47646 0.099003,-0.13531 0.2495926,-0.26597 0.418579,-0.41806 0.3379727,-0.30417 0.7487915,-0.73707 0.7487915,-1.48673 0,-1.01974 -0.83234,-1.85208 -1.8520833,-1.85208 z m -0.1322917,4.7625 c -0.3664478,0 -0.6614583,0.29501 -0.6614583,0.66145 0,0.36645 0.2950105,0.66146 0.6614583,0.66146 0.3664479,0 0.6614583,-0.29501 0.6614583,-0.66146 0,-0.36644 -0.2950104,-0.66145 -0.6614583,-0.66145 z" style="color:#000;font-style:normal;font-variant:normal;font-weight:400;font-stretch:normal;font-size:medium;line-height:normal;font-family:sans-serif;font-variant-ligatures:normal;font-variant-position:normal;font-variant-caps:normal;font-variant-numeric:normal;font-variant-alternates:normal;font-feature-settings:normal;text-indent:0;text-align:start;text-decoration:none;text-decoration-line:none;text-decoration-style:solid;text-decoration-color:#000;letter-spacing:normal;word-spacing:normal;text-transform:none;writing-mode:lr-tb;direction:ltr;text-orientation:mixed;dominant-baseline:auto;baseline-shift:baseline;text-anchor:start;white-space:normal;shape-padding:0;clip-rule:nonzero;display:inline;overflow:visible;visibility:visible;opacity:1;isolation:auto;mix-blend-mode:normal;color-interpolation:sRGB;color-interpolation-filters:linearRGB;solid-color:#000;solid-opacity:1;vector-effect:none;fill:#645400;fill-opacity:1;fill-rule:nonzero;stroke:none;stroke-width:.52916664;stroke-linecap:round;stroke-linejoin:round;stroke-miterlimit:4;stroke-dasharray:none;stroke-dashoffset:0;stroke-opacity:1;paint-order:markers fill stroke;color-rendering:auto;image-rendering:auto;shape-rendering:auto;text-rendering:auto;enable-background:accumulate"/></g></svg>