<svg xmlns="http://www.w3.org/2000/svg" xmlns:svg="http://www.w3.org/2000/svg" xmlns:xlink="http://www.w3.org/1999/xlink" id="Capa_1" width="48" height="48" x="0" y="0" version="1.1" viewBox="0 0 48 48" xml:space="preserve"><metadata id="metadata57"/><defs id="defs55"><linearGradient id="linearGradient1439" x1="24" x2="24" y1="41" y2="8" gradientUnits="userSpaceOnUse" xlink:href="#0"/><linearGradient id="linearGradient991" x1="47" x2="47" y1="315.65" y2="273.65" gradientTransform="translate(33,-265.65001)" gradientUnits="userSpaceOnUse" xlink:href="#1"/><linearGradient id="linearGradient1107" x1="22" x2="22" y1="298.65" y2="281.65" gradientUnits="userSpaceOnUse" xlink:href="#0-3"/><linearGradient id="0" x2="0" y1="545.79" y2="501.79" gradientUnits="userSpaceOnUse"><stop id="stop851" stop-color="#197cf1"/><stop id="stop853" offset="1" stop-color="#20bcfa"/></linearGradient><linearGradient id="1" x1="22.03" x2="21.592" y1="49.03" y2=".437" gradientUnits="userSpaceOnUse"><stop id="stop856" stop-color="#212121"/><stop id="stop858" offset="1" stop-color="#3f3f41"/></linearGradient><linearGradient id="0-3" x2="0" y1="545.14" y2="518.14" gradientUnits="userSpaceOnUse"><stop id="stop890" stop-color="#e7e7e7"/><stop id="stop892" offset="1" stop-color="#fcfcfc"/></linearGradient></defs><g id="layer1" transform="matrix(3.7795276,0,0,3.7795276,63.958984,-1087.5199)"><g id="g1717" transform="translate(4.3001507,-2.6965367)"><g id="layer1-3" transform="matrix(0.26458333,0,0,0.26458333,-6.1413819,218.56211)"><g id="g1470"><g id="g1105" transform="translate(-57,5.0000033)"><g id="g5422" transform="translate(-24,-4.000005)"><path id="rect854" d="m 62,7 c -1.662,0 -3,1.338 -3,3 v 38 c 0,1.662 1.338,3 3,3 h 38 c 1.662,0 3,-1.338 3,-3 V 10 c 0,-1.662 -1.338,-3 -3,-3 z m 1,5 h 2 c 0.554006,0 1,0.445981 1,1 v 2 c 0,0.554004 -0.445994,1 -1,1 h -2 c -0.554006,0 -1,-0.445996 -1,-1 v -2 c 0,-0.554019 0.445994,-1 1,-1 z m 34,0 h 2 c 0.554007,0 1,0.445981 1,1 v 2 c 0,0.554004 -0.445993,1 -1,1 h -2 c -0.554005,0 -1,-0.445996 -1,-1 v -2 c 0,-0.554019 0.445995,-1 1,-1 z m -34,6 h 2 c 0.554004,0 1,0.445996 1,1 v 2 c 0,0.554004 -0.445996,1 -1,1 h -2 c -0.554004,0 -1,-0.445996 -1,-1 v -2 c 0,-0.554004 0.445996,-1 1,-1 z m 34,0 h 2 c 0.554005,0 1,0.445996 1,1 v 2 c 0,0.554004 -0.445995,1 -1,1 h -2 c -0.554004,0 -1,-0.445996 -1,-1 v -2 c 0,-0.554004 0.445996,-1 1,-1 z m -34,6 h 2 c 0.554006,0 1,0.445996 1,1 v 2 c 0,0.554004 -0.445994,1 -1,1 h -2 c -0.554006,0 -1,-0.445996 -1,-1 v -2 c 0,-0.554004 0.445994,-1 1,-1 z m 34,0 h 2 c 0.554007,0 1,0.445996 1,1 v 2 c 0,0.554004 -0.445993,1 -1,1 h -2 c -0.554005,0 -1,-0.445996 -1,-1 v -2 c 0,-0.554004 0.445995,-1 1,-1 z m -34,6 h 2 c 0.554,0 1,0.446011 1,1 v 2 c 0,0.554004 -0.446,1 -1,1 h -2 c -0.554,0 -1,-0.445996 -1,-1 v -2 c 0,-0.553989 0.446,-1 1,-1 z m 34,0 h 2 c 0.554001,0 1,0.446011 1,1 v 2 c 0,0.554004 -0.445999,1 -1,1 h -2 c -0.554,0 -1,-0.445996 -1,-1 v -2 c 0,-0.553989 0.446,-1 1,-1 z m -34,6 h 2 c 0.554006,0 1,0.445996 1,1 v 2 c 0,0.554004 -0.445994,1 -1,1 h -2 c -0.554006,0 -1,-0.445996 -1,-1 v -2 c 0,-0.554004 0.445994,-1 1,-1 z m 34,0 h 2 c 0.554007,0 1,0.445996 1,1 v 2 c 0,0.554004 -0.445993,1 -1,1 h -2 c -0.554005,0 -1,-0.445996 -1,-1 v -2 c 0,-0.554004 0.445995,-1 1,-1 z m -34,6 h 2 c 0.554006,0 1,0.445996 1,1 v 2 c 0,0.554004 -0.445994,1 -1,1 h -2 c -0.554006,0 -1,-0.445996 -1,-1 v -2 c 0,-0.554004 0.445994,-1 1,-1 z m 34,0 h 2 c 0.554007,0 1,0.445996 1,1 v 2 c 0,0.554004 -0.445993,1 -1,1 h -2 c -0.554005,0 -1,-0.445996 -1,-1 v -2 c 0,-0.554004 0.445995,-1 1,-1 z" transform="translate(-33,265.65001)" style="opacity:1;fill:url(#linearGradient991);fill-opacity:1;stroke:none;stroke-width:3.88529491;stroke-linecap:round;stroke-linejoin:round;stroke-miterlimit:4;stroke-dasharray:none;stroke-opacity:1"/></g><path id="rect1364-6" d="m 12,6 c -0.554006,0 -1,0.4459945 -1,1 v 15 c 0,0.554006 0.445994,1 1,1 h 24 c 0.554006,0 1,-0.445994 1,-1 V 7 C 37,6.4459945 36.554006,6 36,6 Z m 0,19 c -0.554006,0 -1,0.445994 -1,1 v 15 c 0,0.554006 0.445994,1 1,1 h 24 c 0.554006,0 1,-0.445994 1,-1 V 26 c 0,-0.554006 -0.445994,-1 -1,-1 z" transform="translate(0,266.64999)" style="opacity:1;fill:url(#linearGradient1439);fill-opacity:1;stroke:none;stroke-width:2;stroke-linecap:round;stroke-linejoin:round;stroke-miterlimit:4;stroke-dasharray:none;stroke-opacity:1"/><path id="path1441" d="m 17.988343,281.64924 c -0.54768,0.006 -0.988264,0.45228 -0.988281,1 v 16 c 1.72e-4,0.79859 0.890135,1.27487 1.554688,0.83203 l 12,-8 c 0.593585,-0.39588 0.593585,-1.26818 0,-1.66406 l -12,-8 c -0.16758,-0.11175 -0.364998,-0.1703 -0.566407,-0.16797 z" style="color:#000;font-style:normal;font-variant:normal;font-weight:400;font-stretch:normal;font-size:medium;line-height:normal;font-family:sans-serif;font-variant-ligatures:normal;font-variant-position:normal;font-variant-caps:normal;font-variant-numeric:normal;font-variant-alternates:normal;font-feature-settings:normal;text-indent:0;text-align:start;text-decoration:none;text-decoration-line:none;text-decoration-style:solid;text-decoration-color:#000;letter-spacing:normal;word-spacing:normal;text-transform:none;writing-mode:lr-tb;direction:ltr;text-orientation:mixed;dominant-baseline:auto;baseline-shift:baseline;text-anchor:start;white-space:normal;shape-padding:0;clip-rule:nonzero;display:inline;overflow:visible;visibility:visible;opacity:1;isolation:auto;mix-blend-mode:normal;color-interpolation:sRGB;color-interpolation-filters:linearRGB;solid-color:#000;solid-opacity:1;vector-effect:none;fill:url(#linearGradient1107);fill-opacity:1;fill-rule:nonzero;stroke:none;stroke-width:2;stroke-linecap:round;stroke-linejoin:round;stroke-miterlimit:4;stroke-dasharray:none;stroke-dashoffset:0;stroke-opacity:1;color-rendering:auto;image-rendering:auto;shape-rendering:auto;text-rendering:auto;enable-background:accumulate"/></g></g></g></g></g></svg>